<svg width="540" height="64" viewBox="0 0 540 64" fill="none" xmlns="http://www.w3.org/2000/svg">
<path d="M59.1963 8.00267C50.3173 8.07007 40.4639 7.45722 31.8491 9.08262C29.9431 9.5 24.4145 9.08262 21.0036 11C17.1055 13.1913 17.5849 11 9.79636 21.5C5.89818 28.5 5.66854 31.7411 3.04816 37.5812C1.18847 41.726 1.68368 48.1691 5.50124 51.7405C8.50205 54.5478 11.8139 58.0373 17.5849 58.7302C21.9257 59.2513 25.9259 61.2935 30.2137 61.46C34.8216 61.639 39.9793 62 44.9321 62C55.8992 62 66.6628 61.46 77.6398 61.46C109.113 61.46 140.366 60.9201 171.856 60.9201H257.804C277.401 60.9201 296.864 59.3001 316.406 59.3001H380.504C398.643 59.3001 416.81 58.7602 435.016 58.7602C443.824 58.7602 452.499 58.2202 461.319 58.2202C468.818 58.2202 476.246 57.1402 483.624 57.1402C495.003 57.1402 506.48 55.6208 517.649 54.9504C523.144 54.6204 534.816 51.2244 535.547 46.8807C536.238 42.7748 538 39.3269 538 35.0013C538 30.7708 536.357 26.5858 534.548 22.7019C533.823 21.147 533.838 18.8227 532.685 17.4522C531.747 16.3369 531.527 14.4042 530.459 13.5224C529.036 12.3479 525.249 7.4627 522.827 7.4627C520.825 7.4627 518.287 7.1798 516.331 6.89273C515.258 6.7352 514.457 5.879 513.469 5.84278C509.617 5.70144 505.957 6.00673 502.385 5.33281C500.495 4.9763 496.787 4.8406 494.805 4.76805L494.662 4.76283C490.196 4.59899 486.371 3.68289 481.988 3.68289C461.898 3.68289 442.921 2.06297 422.706 2.06297H355.201C347.714 2.06297 340.193 1.90302 332.714 2.09297C320.318 2.4078 307.482 1.99883 295.146 2.72293C285.892 3.26613 276.636 3.14291 267.344 3.14291C259.583 3.14291 251.852 4.22286 244.085 4.22286C206.274 4.22286 168.576 5.84278 130.699 5.84278C115.714 5.84278 100.419 5.27381 85.4533 5.87278C76.604 6.22695 68.0581 7.93541 59.1963 8.00267Z" fill="white" stroke="black" stroke-width="3" stroke-linecap="round"/>
</svg>
