<svg width="50" height="91" viewBox="0 0 50 91" fill="none" xmlns="http://www.w3.org/2000/svg">
<path fill-rule="evenodd" clip-rule="evenodd" d="M47.1403 41.1642C47.2102 39.8098 47.202 38.458 47.1187 37.1148L49.1148 36.991C49.2028 38.4088 49.2115 39.8364 49.1377 41.2673L47.1403 41.1642ZM45.8004 49.1355C46.1792 47.8275 46.4781 46.5106 46.7 45.1905L48.6723 45.5219C48.4378 46.9173 48.1218 48.3093 47.7214 49.6919L45.8004 49.1355ZM46.6414 33.091C46.4072 31.7575 46.0992 30.4394 45.7205 29.1432L47.6402 28.5823C48.0394 29.9487 48.3642 31.3385 48.6112 32.745L46.6414 33.091ZM42.6789 56.596C43.3475 55.398 43.9379 54.182 44.4526 52.9532L46.2973 53.7258C45.7537 55.0238 45.1305 56.3072 44.4253 57.5707L42.6789 56.596ZM44.3723 25.3192C43.8536 24.0701 43.267 22.8496 42.6155 21.6643L44.3683 20.701C45.0547 21.95 45.6728 23.236 46.2194 24.5523L44.3723 25.3192ZM39.3085 61.6288C39.7279 61.0985 40.1294 60.5628 40.5132 60.0223L42.1439 61.1802C41.7341 61.7574 41.3054 62.3288 40.8577 62.894L40.8391 62.9175L39.5882 64.3156L38.0977 62.982L39.3085 61.6288ZM40.4716 18.2228C39.696 17.1174 38.8591 16.0535 37.964 15.0376L39.4647 13.7155C40.4088 14.787 41.2912 15.9088 42.1088 17.074L40.4716 18.2228ZM34.4051 67.109L35.636 65.7333L37.1265 67.0669L35.8956 68.4426C35.448 68.9429 34.991 69.4334 34.525 69.9139L33.0893 68.5214C33.5366 68.0602 33.9754 67.5893 34.4051 67.109ZM35.12 12.1513C34.1232 11.2473 33.0727 10.3964 31.9714 9.60492L33.1386 7.98084C34.302 8.81698 35.4114 9.71556 36.4637 10.6699L35.12 12.1513ZM27.2914 73.6091C28.3223 72.8419 29.3237 72.0323 30.2927 71.182L31.6119 72.6852C30.6024 73.571 29.5593 74.4143 28.4854 75.2136L27.2914 73.6091ZM28.5523 7.43374C27.3828 6.78234 26.1677 6.19314 24.9097 5.67189L25.6752 3.82422C27.005 4.37517 28.2894 4.99797 29.5255 5.6865L28.5523 7.43374ZM20.7533 77.7024C21.8956 77.1092 23.0137 76.4703 24.1047 75.7873L25.166 77.4825C24.0295 78.1939 22.8649 78.8594 21.6749 79.4773L20.7533 77.7024ZM21.0866 4.33963C19.8055 3.9739 18.4872 3.67535 17.134 3.44913L17.4637 1.47651C18.8909 1.71509 20.2824 2.03015 21.6356 2.41646L21.0866 4.33963ZM13.644 80.6955C14.8686 80.2924 16.0744 79.8407 17.2589 79.342L18.0349 81.1853C16.8011 81.7047 15.545 82.1753 14.2694 82.5952L13.644 80.6955ZM13.1056 2.99999C12.4339 2.96151 11.7549 2.94035 11.0687 2.93707L10.7061 2.93534L10.7157 0.935366L11.0782 0.937097C11.7993 0.940539 12.5133 0.962776 13.22 1.00327L13.1056 2.99999ZM8.04713 82.1707C8.67915 82.0443 9.30757 81.9054 9.93205 81.7542L10.4028 83.698C9.75229 83.8555 9.0977 84.0002 8.43936 84.1319L6.62928 84.4939L6.23704 82.5327L8.04713 82.1707ZM9.98109 2.93188L9.61856 2.93015L9.62811 0.930174L9.99064 0.931905L9.98109 2.93188ZM0.448193 85.4314C-0.0113333 85.1251 -0.135509 84.5042 0.170849 84.0447L5.16315 76.5562C5.4695 76.0967 6.09037 75.9725 6.5499 76.2789C7.00943 76.5852 7.1336 77.2061 6.82725 77.6656L2.72831 83.814L2.89765 84.6607L9.04605 88.7596C9.50557 89.066 9.62975 89.6868 9.3234 90.1464C9.01704 90.6059 8.39618 90.7301 7.93664 90.4237L0.448193 85.4314Z" fill="#9E9E9E"/>
</svg>
