<svg width="13" height="15" viewBox="0 0 13 15" fill="none" xmlns="http://www.w3.org/2000/svg">
<path fill-rule="evenodd" clip-rule="evenodd" d="M10.4444 0.562462C10.3248 0.525583 10.2203 0.512634 10.1516 0.506706C9.94325 0.488705 9.71087 0.514109 9.58116 0.528289C9.57169 0.529324 9.56276 0.5303 9.55444 0.531194C9.38515 0.549378 9.26621 0.561617 9.15857 0.561617H8.22001C7.88748 0.561617 7.41514 0.672354 7.02081 0.773074C6.57854 0.88604 6.05935 1.03527 5.55907 1.18031C5.50039 1.19732 5.44198 1.21427 5.38394 1.23112C4.93949 1.3601 4.51669 1.48281 4.15899 1.57868C3.95717 1.63277 3.78686 1.67539 3.65268 1.7046C3.53533 1.73014 3.47771 1.73813 3.46255 1.74024C3.45825 1.74083 3.45737 1.74096 3.45952 1.74087C2.90768 1.76294 2.47822 2.22819 2.50029 2.78004C2.52236 3.33188 2.98762 3.76135 3.53946 3.73927C3.84233 3.72716 4.29387 3.61312 4.67676 3.5105C5.05595 3.40886 5.50056 3.27981 5.9413 3.15189C5.99964 3.13495 6.05792 3.11804 6.11598 3.10121C6.6203 2.95499 7.10941 2.81465 7.51576 2.71086C7.7189 2.65898 7.89038 2.61907 8.02574 2.59273C8.14465 2.56958 8.20285 2.5636 8.21742 2.5621C8.22137 2.56169 8.22212 2.56162 8.22001 2.56162H8.59148C8.22113 3.13772 7.84231 3.70498 7.45044 4.28776C7.22288 4.53841 6.74201 5.12118 6.17335 5.81819C5.5107 6.6304 4.67538 7.66469 3.84321 8.69698C3.56064 9.04752 3.27964 9.39629 3.00654 9.73526C1.65203 11.4165 0.491934 12.8564 0.298143 13.0727C-0.0703682 13.4841 -0.0356315 14.1163 0.37573 14.4848C0.787091 14.8533 1.4193 14.8186 1.78781 14.4072C2.02031 14.1477 3.23085 12.645 4.57926 10.9711C4.84965 10.6355 5.12558 10.2929 5.40028 9.95218C6.23248 8.91984 7.06449 7.88968 7.72303 7.0825C8.05249 6.67869 8.33672 6.33291 8.55502 6.07148C8.66431 5.94061 8.75513 5.83322 8.8258 5.75135C8.86113 5.71042 8.88988 5.67767 8.91238 5.65256C8.92357 5.64009 8.9324 5.63041 8.93911 5.62317C8.94559 5.61619 8.94868 5.613 8.949 5.61267L8.94902 5.61265L9.01411 5.5465L9.06591 5.46949C9.34813 5.04998 9.62775 4.63273 9.90491 4.21065L9.91395 4.2182C9.91898 4.22893 9.92557 4.24419 9.93328 4.26479C9.96837 4.35855 10.0053 4.5059 10.0349 4.71483C10.0941 5.13299 10.1066 5.66778 10.0935 6.23718C10.0819 6.74083 10.0516 7.23571 10.0254 7.66227C10.0223 7.71312 10.0192 7.763 10.0163 7.81181C10.0027 8.03462 9.99062 8.24571 9.98614 8.41477C9.98391 8.49888 9.9831 8.58802 9.98657 8.67131L9.98663 8.67284C9.98892 8.72787 9.99542 8.88418 10.0475 9.04608C10.2165 9.57187 10.7797 9.8611 11.3055 9.6921C11.7876 9.53715 12.0708 9.05082 11.9843 8.56578C11.9841 8.54461 11.9842 8.51274 11.9854 8.46773C11.9889 8.33824 11.9988 8.16076 12.0126 7.93295C12.0155 7.88537 12.0185 7.83601 12.0216 7.78505C12.0477 7.36161 12.0805 6.82772 12.093 6.28312C12.1069 5.6787 12.0973 5.01526 12.0151 4.43455C11.974 4.14404 11.9104 3.8418 11.8064 3.56377C11.7559 3.4289 11.6883 3.27907 11.5955 3.13168C11.5868 2.68922 11.562 2.41281 11.5355 2.18402C11.53 2.13625 11.5249 2.09375 11.5202 2.05475C11.4983 1.87418 11.4855 1.76849 11.4855 1.56163C11.4855 1.00935 11.0378 0.561634 10.4855 0.561634C10.4718 0.561634 10.4581 0.561912 10.4444 0.562462ZM11.9848 8.58801C11.9848 8.58779 11.9848 8.58756 11.9848 8.58733Z" fill="#EBEBEB"/>
</svg>
