<svg width="154" height="54" viewBox="0 0 154 54" fill="none" xmlns="http://www.w3.org/2000/svg">
<path d="M27.8368 2.56226C19.6139 2.56226 11.2709 1.6351 3.18459 4.08726C1.05501 4.08726 2.44667 14.4726 2.44667 16.1178C2.44667 21.7511 2.69264 27.4057 2.69264 33.0622C2.69264 37.5889 2.35365 42.5255 3.04794 46.9566C3.77029 51.5667 4.99367 49.6009 7.57116 50.5996C9.74124 51.4405 12.6536 51.3508 14.8958 50.7902C18.3384 49.9296 21.9561 50.854 25.4317 50.3031C30.0026 49.5785 34.552 47.604 39.1517 47.5496C45.8679 47.4701 52.4568 48.9577 59.1304 50.0277C65.1593 50.9944 70.7105 52.425 76.7724 51.3409C78.6057 51.0131 80.354 50.1972 82.1975 49.9218C83.839 49.6766 85.3853 50.2603 86.9804 50.2184C93.4067 50.0495 99.8716 49.5297 106.303 50.3031C117.241 51.6184 128.508 53.0928 139.442 50.8114C142.913 50.0871 146.269 49.3534 149.622 47.7402C151.556 46.8099 151.016 44.3844 151.016 41.6191C151.016 34.311 152 26.9882 152 19.6337C152 16.2395 151.754 12.9616 151.754 9.61537C151.754 8.19567 151.508 6.84128 151.508 5.44281C151.508 4.2575 151.101 4.57535 150.661 3.70601C149.849 2.10409 149.114 2.96657 148.01 2.47754C146.069 1.61813 143.633 2.18101 141.614 2.18101C138.179 2.18101 134.775 2.56226 131.352 2.56226C129.012 2.56226 126.628 2.34612 124.3 2.77407C121.828 3.22881 119.422 3.85714 116.921 3.68483C105.506 2.89846 94.1534 2.56226 82.7168 2.56226H63.3394C60.831 2.56226 58.3406 2.94351 55.8371 2.94351C53.6066 2.94351 51.2686 2.62261 49.0591 3.15532C45.6458 3.97828 41.6891 4.2662 38.2498 3.40948C34.756 2.53919 31.3668 2.56226 27.8368 2.56226Z" fill="#BA242D" stroke="black" stroke-width="3" stroke-linecap="round"/>
</svg>
