<svg width="244" height="54" viewBox="0 0 244 54" fill="none" xmlns="http://www.w3.org/2000/svg">
<path d="M43.3389 2.56226C30.1822 2.56226 16.8334 1.6351 3.89535 4.08726C0.488009 4.08726 2.71466 14.4726 2.71466 16.1178C2.71466 21.7511 3.10823 27.4057 3.10823 33.0622C3.10823 37.5889 2.56584 42.5255 3.6767 46.9566C4.83246 51.5667 6.78987 49.6009 10.9139 50.5996C14.386 51.4405 19.0457 51.3508 22.6332 50.7902C28.1414 49.9296 33.9297 50.854 39.4908 50.3031C46.8041 49.5785 54.0831 47.604 61.4428 47.5496C72.1886 47.4701 82.7309 48.9577 93.4087 50.0277C103.055 50.9944 111.937 52.425 121.636 51.3409C124.569 51.0131 127.366 50.1972 130.316 49.9218C132.942 49.6766 135.416 50.2603 137.969 50.2184C148.251 50.0495 158.595 49.5297 168.885 50.3031C186.385 51.6184 204.412 53.0928 221.907 50.8114C227.461 50.0871 232.83 49.3534 238.196 47.7402C241.29 46.8099 240.426 44.3844 240.426 41.6191C240.426 34.311 242 26.9882 242 19.6337C242 16.2395 241.606 12.9616 241.606 9.61537C241.606 8.19567 241.213 6.84128 241.213 5.44281C241.213 4.2575 240.562 4.57535 239.857 3.70601C238.558 2.10409 237.382 2.96657 235.616 2.47754C232.51 1.61813 228.612 2.18101 225.383 2.18101C219.886 2.18101 214.441 2.56226 208.963 2.56226C205.22 2.56226 201.404 2.34612 197.681 2.77407C193.724 3.22881 189.876 3.85714 185.874 3.68483C167.609 2.89846 149.445 2.56226 131.147 2.56226H100.143C96.1296 2.56226 92.145 2.94351 88.1394 2.94351C84.5706 2.94351 80.8297 2.62261 77.2946 3.15532C71.8332 3.97828 65.5026 4.2662 59.9997 3.40948C54.4097 2.53919 48.9869 2.56226 43.3389 2.56226Z" fill="white" stroke="black" stroke-width="3" stroke-linecap="round"/>
</svg>
