<svg width="454" height="54" viewBox="0 0 454 54" fill="none" xmlns="http://www.w3.org/2000/svg">
<path d="M79.5105 2.56226C54.8416 2.56226 29.8126 1.6351 5.55378 4.08726C-0.834984 4.08726 3.34 14.4726 3.34 16.1178C3.34 21.7511 4.07792 27.4057 4.07792 33.0622C4.07792 37.5889 3.06096 42.5255 5.14382 46.9566C7.31086 51.5667 10.981 49.6009 18.7135 50.5996C25.2237 51.4405 33.9607 51.3508 40.6873 50.7902C51.0152 49.9296 61.8682 50.854 72.2952 50.3031C86.0076 49.5785 99.6559 47.604 113.455 47.5496C133.604 47.4701 153.37 48.9577 173.391 50.0277C191.478 50.9944 208.132 52.425 226.317 51.3409C231.817 51.0131 237.062 50.1972 242.592 49.9218C247.517 49.6766 252.156 50.2603 256.941 50.2184C276.22 50.0495 295.615 49.5297 314.909 50.3031C347.723 51.6184 381.523 53.0928 414.325 50.8114C424.739 50.0871 434.806 49.3534 444.867 47.7402C450.669 46.8099 449.048 44.3844 449.048 41.6191C449.048 34.311 452 26.9882 452 19.6337C452 16.2395 451.262 12.9616 451.262 9.61537C451.262 8.19567 450.524 6.84128 450.524 5.44281C450.524 4.2575 449.304 4.57535 447.982 3.70601C445.546 2.10409 443.342 2.96657 440.029 2.47754C434.207 1.61813 426.898 2.18101 420.843 2.18101C410.536 2.18101 400.326 2.56226 390.055 2.56226C383.037 2.56226 375.883 2.34612 368.901 2.77407C361.483 3.22881 354.267 3.85714 346.763 3.68483C312.517 2.89846 278.46 2.56226 244.15 2.56226H186.018C178.493 2.56226 171.022 2.94351 163.511 2.94351C156.82 2.94351 149.806 2.62261 143.177 3.15532C132.937 3.97828 121.067 4.2662 110.749 3.40948C100.268 2.53919 90.1003 2.56226 79.5105 2.56226Z" fill="#BA242D"/>
<path fill-rule="evenodd" clip-rule="evenodd" d="M426.29 3.5912C424.443 3.63628 422.611 3.68099 420.843 3.68099C415.706 3.68099 410.591 3.776 405.464 3.87136L405.444 3.87173C400.328 3.96688 395.2 4.06224 390.055 4.06224C388.269 4.06224 386.484 4.04855 384.703 4.03488C379.421 3.99435 374.168 3.95404 368.993 4.27124C367.63 4.35477 366.27 4.4446 364.909 4.53444C358.912 4.93033 352.912 5.32639 346.729 5.18441C312.496 4.39834 278.451 4.06224 244.151 4.06224H186.018C182.278 4.06224 178.548 4.15699 174.798 4.25238L174.783 4.25275C171.044 4.34786 167.284 4.44349 163.511 4.44349C161.649 4.44349 159.78 4.41945 157.912 4.39543C152.974 4.33192 148.049 4.26858 143.298 4.65047C133.006 5.47761 121.05 5.76985 110.626 4.90432C100.471 4.06118 90.6068 4.06169 80.2863 4.06222L79.5107 4.06224C74.1768 4.06224 68.8356 4.01928 63.4963 3.97633C44.0645 3.82003 24.6566 3.66392 5.70484 5.57963L5.6296 5.58724H5.55398C4.95875 5.58724 4.59707 5.70724 4.37476 5.83563C4.16035 5.95946 3.98965 6.14007 3.8505 6.41433C3.53887 7.02856 3.42955 8.02845 3.5456 9.3548C3.65771 10.6361 3.95639 11.9959 4.24561 13.1911C4.29813 13.4082 4.35194 13.6262 4.40415 13.8378C4.48962 14.1841 4.5708 14.513 4.63501 14.7918C4.72828 15.1967 4.8402 15.7105 4.8402 16.1178C4.8402 18.8772 5.02095 21.6502 5.20598 24.4835L5.20698 24.4988C5.39061 27.3106 5.57813 30.182 5.57813 33.0621C5.57813 34.2104 5.51537 35.3773 5.45458 36.5079L5.44961 36.6002C5.38653 37.7742 5.32707 38.9131 5.33 40.0413C5.33585 42.2945 5.59326 44.3862 6.50153 46.3184C6.95245 47.2777 7.41717 47.766 7.88444 48.0572C8.37332 48.3618 9.01411 48.5447 9.98706 48.6394C10.7562 48.7142 11.6134 48.7265 12.6629 48.7415C12.9785 48.746 13.3116 48.7508 13.6649 48.7576C15.1539 48.7862 16.8947 48.8522 18.9058 49.1119C25.276 49.9347 33.8995 49.8507 40.563 49.2954C45.805 48.8586 51.1643 48.8759 56.4698 48.9306C56.9733 48.9358 57.4762 48.9413 57.9786 48.9468C62.7914 48.9996 67.5485 49.0518 72.2163 48.8051C77.5856 48.5214 82.9396 48.0455 88.328 47.5666C89.7871 47.4369 91.2488 47.307 92.7139 47.1806C99.5722 46.589 106.485 46.0771 113.449 46.0496C129.341 45.9869 145.005 46.8966 160.689 47.8073C164.947 48.0545 169.206 48.3019 173.472 48.5298C176.633 48.6988 179.745 48.8814 182.824 49.0622C197.425 49.9191 211.301 50.7334 226.228 49.8436C228.803 49.6901 231.324 49.4279 233.883 49.1618L234.289 49.1197C236.976 48.8406 239.707 48.5636 242.518 48.4237C245.058 48.2972 247.51 48.3852 249.889 48.4954C250.231 48.5113 250.571 48.5276 250.91 48.5438C252.944 48.6412 254.922 48.736 256.928 48.7184C261.02 48.6826 265.122 48.6308 269.231 48.5789C284.441 48.3869 299.741 48.1938 314.97 48.8043C315.981 48.8448 316.993 48.8855 318.006 48.9262C349.879 50.2073 382.524 51.5195 414.221 49.315C424.642 48.5903 434.644 47.8602 444.629 46.2591C447.427 45.8106 447.643 45.1147 447.697 44.9372C447.766 44.7056 447.778 44.3694 447.718 43.7563C447.706 43.6355 447.691 43.4991 447.674 43.3511C447.619 42.8541 447.548 42.2264 447.548 41.6191C447.548 37.8208 448.309 34.0453 449.036 30.4366L449.054 30.3476C449.797 26.6575 450.5 23.1359 450.5 19.6337C450.5 18.033 450.326 16.4466 450.14 14.772L450.134 14.7182C449.953 13.0864 449.762 11.3662 449.762 9.61534C449.762 9.13521 449.637 8.63214 449.444 7.90807L449.425 7.83598C449.275 7.27643 449.084 6.56218 449.036 5.79776C449.034 5.7971 449.032 5.79644 449.03 5.79578C448.641 5.67067 447.855 5.41738 447.158 4.95931C446.264 4.37119 445.416 4.21437 444.281 4.17344C443.988 4.16291 443.656 4.16156 443.293 4.16007C442.31 4.15606 441.095 4.15111 439.81 3.96144C435.74 3.36059 430.967 3.47707 426.29 3.5912ZM425.941 0.595537C430.709 0.479187 435.905 0.352422 440.248 0.9936C441.311 1.15039 442.175 1.15317 443.082 1.15608C443.501 1.15743 443.928 1.1588 444.389 1.17539C445.792 1.22596 447.265 1.43886 448.807 2.45267C449.13 2.6652 449.369 2.74332 449.709 2.85463C449.87 2.90725 450.053 2.96728 450.279 3.05244C450.566 3.16067 451.044 3.36239 451.43 3.79188C451.866 4.27809 452.024 4.86698 452.024 5.44279C452.024 5.91085 452.148 6.40579 452.343 7.13414L452.359 7.19393C452.533 7.84489 452.762 8.70396 452.762 9.61534C452.762 11.1915 452.936 12.7647 453.122 14.4411L453.124 14.4612C453.307 16.1048 453.5 17.8475 453.5 19.6337C453.5 23.4667 452.735 27.2648 452.006 30.8854L451.995 30.94C451.251 34.6314 450.548 38.1405 450.548 41.6191C450.548 42.0441 450.591 42.4298 450.642 42.8838C450.662 43.0648 450.684 43.2567 450.704 43.4663C450.767 44.1148 450.821 44.9616 450.57 45.7983C449.983 47.7575 448.109 48.7395 445.104 49.2213C434.967 50.8466 424.837 51.5839 414.429 52.3078C382.564 54.5239 349.774 53.2057 317.948 51.9263C316.914 51.8847 315.881 51.8432 314.85 51.8018C299.707 51.1949 284.511 51.3866 269.312 51.5783C265.193 51.6302 261.073 51.6822 256.954 51.7183C254.856 51.7366 252.784 51.6372 250.754 51.5398C250.418 51.5237 250.083 51.5077 249.75 51.4922C247.382 51.3824 245.052 51.3012 242.667 51.4199C239.947 51.5554 237.291 51.8241 234.598 52.1037L234.176 52.1476C231.631 52.4122 229.05 52.6807 226.407 52.8382C211.286 53.7396 197.204 52.9125 182.596 52.0544C179.529 51.8742 176.439 51.6927 173.311 51.5256C169.015 51.2959 164.735 51.0475 160.464 50.7995C144.794 49.8897 129.25 48.9873 113.461 49.0496C106.626 49.0765 99.8155 49.5791 92.9717 50.1695C91.5245 50.2943 90.0747 50.4232 88.6228 50.5523C83.227 51.0319 77.8031 51.5141 72.3746 51.801C67.6054 52.053 62.751 51.9995 57.954 51.9467C57.4482 51.9412 56.9431 51.9356 56.4389 51.9304C51.1291 51.8757 45.898 51.8612 40.8121 52.285C34.0223 52.8508 25.1719 52.9462 18.5215 52.0872C16.6664 51.8476 15.0488 51.7848 13.6072 51.757C13.3038 51.7512 13.0028 51.747 12.7056 51.7428C11.6284 51.7277 10.6014 51.7133 9.69657 51.6253C8.51454 51.5103 7.3482 51.2578 6.29781 50.6033C5.2258 49.9352 4.41912 48.9404 3.78652 47.5947C2.61193 45.0958 2.33639 42.5038 2.33001 40.0491C2.32682 38.8235 2.39142 37.6026 2.45393 36.4393L2.45698 36.3825C2.51917 35.2255 2.57813 34.1286 2.57813 33.0621C2.57813 30.291 2.39737 27.512 2.21235 24.679L2.21023 24.6465C2.02698 21.8404 1.8402 18.9805 1.8402 16.1178C1.8402 16.1238 1.84028 16.127 1.84017 16.127C1.83977 16.1271 1.83676 16.0815 1.81717 15.9692C1.7949 15.8414 1.76001 15.6755 1.71156 15.4652C1.65148 15.2043 1.58097 14.9189 1.50102 14.5952C1.44799 14.3805 1.39081 14.149 1.32976 13.8967C1.03582 12.682 0.690058 11.1369 0.557015 9.61628C0.427911 8.14065 0.472744 6.44139 1.17514 5.05697C1.54301 4.3319 2.09429 3.6883 2.87441 3.23776C3.62607 2.80365 4.5039 2.5983 5.47415 2.58767C24.5826 0.66142 44.182 0.819643 63.6134 0.97651C68.9296 1.01943 74.2332 1.06224 79.5107 1.06224C79.7856 1.06224 80.0601 1.06223 80.3345 1.06221C90.6196 1.0616 100.594 1.06101 110.874 1.91461C121.085 2.76251 132.869 2.47891 143.057 1.66012C147.959 1.26615 153.098 1.3323 158.083 1.39647C159.92 1.42012 161.736 1.44349 163.511 1.44349C167.245 1.44349 170.971 1.34874 174.721 1.25335L174.725 1.25325C178.468 1.15805 182.235 1.06224 186.018 1.06224H244.151C278.47 1.06224 312.538 1.39853 346.798 2.1852C352.835 2.32382 358.673 1.93885 364.661 1.54395C366.035 1.45337 367.416 1.36228 368.81 1.27686C374.097 0.952751 379.499 0.994335 384.808 1.03519C386.57 1.04876 388.322 1.06224 390.055 1.06224C395.172 1.06224 400.277 0.967311 405.402 0.871996L405.408 0.871877C410.53 0.776606 415.674 0.680993 420.843 0.680993C422.439 0.680993 424.16 0.638991 425.941 0.595537Z" fill="black"/>
</svg>
