<svg width="195" height="140" viewBox="0 0 195 140" fill="none" xmlns="http://www.w3.org/2000/svg">
<path d="M150.698 48.9579C150.062 48.6824 149.399 47.7317 148.708 46.1058L147.652 43.4049L147.614 43.4927L146.182 46.7764C146.003 47.1903 145.731 47.3184 145.367 47.1607C145.129 47.0573 144.984 46.8703 144.933 46.5996C144.89 46.3774 144.912 46.166 144.999 45.9653C145.423 44.9869 146.087 43.5362 146.99 41.6132C147.894 39.6901 148.557 38.2415 148.979 37.2673C149.057 37.0875 149.182 36.9603 149.353 36.8856C149.529 36.8128 149.705 36.8144 149.88 36.8906C150.06 36.9685 150.181 37.0956 150.244 37.2718C150.311 37.4498 150.305 37.6287 150.227 37.8085C150.051 38.2141 149.753 38.8346 149.331 39.6699C148.922 40.476 148.624 41.0995 148.438 41.5403C149.228 41.2523 150.151 40.8601 151.206 40.3637L153.911 39.0557C154.124 38.9543 154.318 38.9416 154.494 39.0178C154.661 39.0903 154.782 39.2174 154.858 39.399C154.933 39.5807 154.931 39.7614 154.853 39.9412C154.734 40.2171 153.875 40.7191 152.278 41.4472C151.18 41.9398 150.065 42.4048 148.931 42.8422C149.205 43.5866 149.662 44.6842 150.305 46.1351L150.724 46.9725C150.883 47.2598 151.08 47.5093 151.316 47.721C151.599 47.9729 151.675 48.2515 151.542 48.5567C151.481 48.6989 151.378 48.8157 151.234 48.9073C151.056 49.019 150.878 49.0359 150.698 48.9579Z" fill="black"/>
<path d="M146.456 38.4533C146.189 38.3373 146.056 38.0934 146.058 37.7218C146.057 37.4035 146.019 37.1933 145.944 37.0912C145.876 37.0072 145.669 36.8899 145.322 36.7394C144.715 36.4765 143.841 36.6487 142.699 37.256C141.155 38.0669 140.141 39.0305 139.657 40.1469C139.423 40.6862 139.395 41.2256 139.574 41.7649C139.755 42.3204 140.096 42.7069 140.598 42.9245C141.029 43.1112 141.51 43.1881 142.041 43.155C142.338 43.1348 142.817 43.0494 143.478 42.899C143.792 42.8268 144.01 42.8169 144.131 42.8695C144.311 42.9475 144.432 43.0817 144.493 43.2723C144.557 43.4587 144.552 43.6355 144.479 43.8027C144.398 43.9909 144.247 44.1216 144.026 44.1948C142.498 44.6946 141.17 44.6997 140.041 44.2102C139.175 43.8349 138.588 43.1852 138.278 42.2612C137.98 41.3671 138.022 40.481 138.402 39.603C139.017 38.1856 140.241 36.9901 142.074 36.0165C143.603 35.2044 144.872 35.0168 145.879 35.4537C146.084 35.5425 146.264 35.6328 146.418 35.7244C146.573 35.8118 146.705 35.9036 146.812 35.9998C147.051 35.8501 147.287 35.8259 147.522 35.9275C147.81 36.0525 147.91 36.3217 147.82 36.7348C147.74 37.1025 147.593 37.533 147.379 38.0264C147.305 38.1978 147.193 38.3284 147.045 38.4181C146.862 38.5322 146.665 38.5439 146.456 38.4533Z" fill="black"/>
<path d="M139.489 34.5085C139.222 34.3924 138.897 34.2193 138.515 33.9891L137.562 33.4195C136.939 34.5946 136.387 35.7361 135.906 36.8441C135.779 37.1367 135.631 37.502 135.461 37.9399C135.291 38.3779 135.142 38.7431 135.015 39.0358C134.845 39.4289 134.675 39.78 134.506 40.0893L136.493 40.9208C136.668 40.997 136.788 41.1231 136.85 41.2993C136.919 41.4732 136.914 41.65 136.836 41.8298C136.757 42.0137 136.629 42.1421 136.453 42.215C136.284 42.2855 136.111 42.2827 135.935 42.2065C135.701 42.105 135.347 41.959 134.874 41.7684C134.402 41.5738 134.049 41.4256 133.814 41.3241C133.538 41.2045 133.108 41.0626 132.524 40.8985C131.942 40.7405 131.51 40.6007 131.23 40.4792C131.055 40.4031 130.933 40.276 130.867 40.098C130.802 39.926 130.809 39.7501 130.887 39.5703C130.965 39.3905 131.089 39.2633 131.261 39.1886C131.436 39.1158 131.612 39.1174 131.788 39.1935C132.059 39.3114 132.528 39.4624 133.193 39.6465C133.382 39.326 133.571 38.9483 133.759 38.5135C133.884 38.225 134.022 37.8674 134.172 37.4408C134.328 37.0118 134.468 36.6551 134.591 36.3708C135.01 35.405 135.592 34.2241 136.336 32.8282L135.51 32.4997L134.686 32.165C134.507 32.0871 134.382 31.9612 134.314 31.7873C134.245 31.6135 134.251 31.4325 134.333 31.2444C134.502 30.8555 134.791 30.7275 135.2 30.8603C135.553 30.9737 136.194 31.2316 137.122 31.6341C137.954 31.9949 138.958 32.5371 140.135 33.2608C140.483 33.4765 140.572 33.7809 140.402 34.1739C140.317 34.3705 140.178 34.4964 139.985 34.5519C139.818 34.5936 139.652 34.5792 139.489 34.5085Z" fill="black"/>
<path d="M130.207 39.4617C129.638 39.4784 128.81 39.3552 127.722 39.0921C126.719 38.8508 125.922 38.6024 125.333 38.3468C124.911 38.1636 124.636 37.9674 124.508 37.758C124.333 37.4736 124.347 37.0973 124.55 36.629L125.576 34.6074C126.515 32.7396 127.49 30.6392 128.502 28.3061C128.58 28.1263 128.705 27.9991 128.876 27.9244C129.052 27.8515 129.227 27.8532 129.403 27.9293C129.583 28.0073 129.704 28.1344 129.767 28.3106C129.833 28.4886 129.828 28.6675 129.75 28.8473C128.726 31.2096 127.737 33.3343 126.785 35.2212L126.29 36.1391C126.106 36.4716 125.96 36.7735 125.853 37.0447C126.939 37.5305 128.43 37.8716 130.327 38.0682C130.407 38.0781 130.478 38.0967 130.541 38.1239C130.721 38.2018 130.84 38.3382 130.9 38.5329C130.948 38.7078 130.936 38.8789 130.864 39.0462C130.748 39.3138 130.529 39.4523 130.207 39.4617Z" fill="black"/>
<path d="M126.545 29.8194C126.277 29.7034 126.144 29.4596 126.147 29.0879C126.146 28.7696 126.108 28.5594 126.033 28.4573C125.965 28.3733 125.757 28.256 125.41 28.1055C124.804 27.8426 123.93 28.0149 122.787 28.6222C121.243 29.433 120.229 30.3966 119.745 31.513C119.511 32.0524 119.484 32.5917 119.662 33.131C119.844 33.6865 120.185 34.0731 120.687 34.2906C121.117 34.4774 121.598 34.5542 122.129 34.5212C122.426 34.5009 122.905 34.4155 123.566 34.2652C123.881 34.1929 124.099 34.1831 124.22 34.2356C124.4 34.3136 124.52 34.4478 124.582 34.6384C124.645 34.8248 124.64 35.0016 124.568 35.1688C124.486 35.357 124.335 35.4877 124.115 35.561C122.587 36.0607 121.258 36.0658 120.129 35.5763C119.264 35.201 118.676 34.5514 118.367 33.6273C118.069 32.7332 118.11 31.8471 118.491 30.9691C119.106 29.5517 120.329 28.3562 122.162 27.3826C123.692 26.5705 124.96 26.3829 125.968 26.8198C126.173 26.9087 126.352 26.9989 126.506 27.0905C126.662 27.1779 126.793 27.2697 126.901 27.3659C127.14 27.2162 127.376 27.192 127.61 27.2936C127.899 27.4187 127.998 27.6878 127.908 28.1009C127.828 28.4686 127.681 28.8991 127.468 29.3925C127.393 29.5639 127.282 29.6945 127.134 29.7842C126.95 29.8983 126.754 29.9101 126.545 29.8194Z" fill="black"/>
<path fill-rule="evenodd" clip-rule="evenodd" d="M111.739 15.4056C111.499 15.4163 111.41 15.4613 111.4 15.4679C110.826 15.8328 110.365 16.3158 109.793 16.9141C109.756 16.9528 109.719 16.9919 109.681 17.0315C109.223 17.5098 108.738 17.9621 108.284 18.3854C108.082 18.573 107.887 18.7549 107.703 18.931C107.081 19.5253 106.523 20.1096 106.04 20.8041C104.305 23.2996 103.464 26.0793 102.561 29.0634C102.321 29.8573 102.076 30.6656 101.809 31.4869C101.687 31.8632 101.585 32.2462 101.475 32.66C101.464 32.6997 101.454 32.7396 101.443 32.7799C101.323 33.2292 101.192 33.7122 101.023 34.1932C100.988 34.2909 100.935 34.4181 100.892 34.5202C100.883 34.541 100.874 34.5607 100.867 34.5789C100.812 34.7094 100.761 34.8355 100.72 34.9549C100.712 34.9795 100.704 35.0023 100.698 35.0234L100.701 35.0259C100.839 35.1171 101.027 35.2157 101.256 35.32C101.483 35.423 101.719 35.5183 101.952 35.6123L101.973 35.6211C102.182 35.7053 102.418 35.8005 102.597 35.8899C104.903 37.0432 107.339 37.8951 109.849 38.7021C110.429 38.8887 111.016 39.0735 111.605 39.2592C113.542 39.8696 115.513 40.4909 117.432 41.2267C118.393 41.5953 119.385 41.9479 120.391 42.3051C122.57 43.0794 124.81 43.8752 126.923 44.9017C130.324 46.5542 133.737 48.2442 137.079 50.0569C139.164 51.1882 141.289 52.2528 143.431 53.326C143.866 53.5439 144.301 53.7621 144.737 53.9814C147.313 55.2764 149.9 56.6021 152.409 58.0684C152.861 58.3324 153.479 58.4776 154.233 58.545C154.8 58.5956 155.364 58.5979 155.93 58.6003C156.122 58.6011 156.315 58.6019 156.508 58.6046C157.167 58.6138 157.768 58.3583 158.366 57.8878C158.978 57.407 159.531 56.7448 160.075 56.0286C161.044 54.752 162.18 53.5683 163.27 52.4321C163.54 52.1507 163.807 51.8722 164.068 51.5958C165.41 50.1762 166.628 48.7834 167.501 47.1979C167.978 46.3316 168.572 45.4611 169.134 44.6354C169.408 44.234 169.674 43.8432 169.917 43.4686C170.694 42.2668 171.318 41.1062 171.592 39.8344C171.614 39.7337 171.652 39.583 171.689 39.4396C171.711 39.3523 171.732 39.2677 171.749 39.1988C171.8 38.9897 171.84 38.7941 171.861 38.6243C171.451 38.5624 171 38.4763 170.536 38.3051C167.679 37.2505 165.235 36.2138 162.638 34.3808C160.789 33.0749 158.944 31.7629 157.128 30.3757C155.672 29.2636 153.792 28.8537 151.696 28.4735C150.845 28.3191 149.992 28.1382 149.17 27.9156C147.118 27.3593 145.154 26.6156 143.242 25.8889L143.177 25.8642C141.273 25.1407 139.419 24.4361 137.496 23.9029C136.401 23.5995 135.298 23.3135 134.186 23.0252L134.122 23.0085C132.991 22.7153 131.851 22.4193 130.719 22.1038C128.597 21.5123 126.575 20.5204 124.664 19.5833C124.014 19.2644 123.377 18.9519 122.753 18.6637C119.974 17.3793 117.374 16.2471 114.499 15.8468C114.242 15.811 113.929 15.7428 113.637 15.6791C113.615 15.6743 113.593 15.6695 113.571 15.6647C113.241 15.5929 112.908 15.5216 112.582 15.4708C112.252 15.4195 111.968 15.3954 111.739 15.4056ZM100.653 35.2167C100.653 35.2167 100.653 35.2126 100.654 35.2033C100.654 35.2118 100.653 35.2167 100.653 35.2167ZM114.018 13.7152C114.353 13.7881 114.596 13.8411 114.775 13.8659C117.978 14.3118 120.822 15.5679 123.592 16.8481C124.31 17.1796 125.004 17.5202 125.688 17.8553C127.549 18.7678 129.327 19.6396 131.256 20.1773C132.368 20.4872 133.491 20.7787 134.624 21.0725L134.695 21.091C135.802 21.3781 136.919 21.6677 138.03 21.9756C140.044 22.5338 141.973 23.2668 143.85 23.9805L143.953 24.0194C145.877 24.7507 147.751 25.4588 149.693 25.9852C150.444 26.1886 151.239 26.3579 152.053 26.5056C154.101 26.8771 156.451 27.342 158.342 28.7864C160.125 30.1485 161.943 31.4413 163.792 32.747C166.176 34.4302 168.429 35.3954 171.229 36.4289C171.616 36.5721 171.999 36.6254 172.551 36.7022C172.826 36.7406 173.095 36.8492 173.322 37.0449C173.545 37.2363 173.677 37.4681 173.755 37.6802C173.899 38.0741 173.885 38.49 173.855 38.7831C173.811 39.2229 173.669 39.775 173.593 40.0735C173.571 40.1565 173.555 40.2199 173.547 40.2557C173.196 41.8857 172.414 43.2906 171.596 44.5549C171.295 45.0205 170.998 45.455 170.711 45.8757C170.183 46.6485 169.687 47.3749 169.253 48.1629C168.249 49.9856 166.88 51.5331 165.522 52.9698C165.237 53.2708 164.954 53.5658 164.675 53.8575C163.593 54.9852 162.56 56.0626 161.667 57.2382C161.108 57.975 160.427 58.8116 159.603 59.4598C158.766 60.1183 157.73 60.6218 156.48 60.6044C156.327 60.6022 156.16 60.6016 155.984 60.6009C155.402 60.5986 154.716 60.596 154.056 60.5371C153.191 60.4599 152.227 60.2787 151.4 59.7951C148.949 58.363 146.411 57.0613 143.839 55.7683C143.408 55.5517 142.976 55.3353 142.543 55.1185C140.401 54.0451 138.242 52.9632 136.125 51.8149C132.825 50.0243 129.444 48.3502 126.049 46.7006C124.035 45.7224 121.976 44.9914 119.855 44.2386C118.823 43.8726 117.777 43.5014 116.715 43.0941C114.859 42.3822 112.968 41.7861 111.043 41.1794C110.444 40.9906 109.842 40.8007 109.237 40.6061C106.707 39.7927 104.15 38.9032 101.702 37.6786C101.606 37.6305 101.448 37.5657 101.203 37.467L101.188 37.4606C100.965 37.3707 100.694 37.2616 100.428 37.1403C100.158 37.0173 99.8606 36.8682 99.5957 36.6925C99.3498 36.5293 99.0294 36.2779 98.8284 35.9144C98.6256 35.5478 98.6433 35.1685 98.6692 34.9566C98.6984 34.7187 98.7655 34.4896 98.8276 34.3081C98.8915 34.1209 98.9648 33.9428 99.0225 33.8053C99.0376 33.7692 99.0509 33.7376 99.0626 33.7098C99.1028 33.6144 99.1241 33.5639 99.1361 33.5298C99.2766 33.1301 99.3905 32.7151 99.5106 32.2647C99.5215 32.2236 99.5326 32.1821 99.5437 32.1403C99.6514 31.7351 99.7673 31.2996 99.9073 30.8687C100.145 30.1381 100.37 29.39 100.598 28.6327C101.509 25.6112 102.464 22.4441 104.398 19.6623C104.993 18.8063 105.663 18.1147 106.321 17.4855C106.545 17.2715 106.761 17.0699 106.973 16.8726C107.405 16.4703 107.818 16.0857 108.236 15.649C108.282 15.6004 108.329 15.5508 108.377 15.5005C108.914 14.937 109.537 14.2819 110.327 13.78C110.756 13.5072 111.244 13.4256 111.65 13.4076C112.068 13.389 112.5 13.434 112.889 13.4946C113.282 13.5558 113.67 13.6394 113.996 13.7105L114.018 13.7152Z" fill="#CFCECE"/>
<path fill-rule="evenodd" clip-rule="evenodd" d="M110.501 119.052C111.318 118.19 111.989 117.15 112.5 115.902L114.351 116.659C113.753 118.121 112.951 119.375 111.952 120.428L110.501 119.052ZM103.78 122.346C105.155 122.094 106.383 121.716 107.464 121.209L108.315 123.019C107.051 123.612 105.654 124.035 104.141 124.313L103.78 122.346ZM113.453 112.175C113.614 110.978 113.679 109.656 113.641 108.199L115.641 108.147C115.681 109.694 115.612 111.124 115.435 112.441L113.453 112.175ZM95.8065 122.609C97.2219 122.716 98.5612 122.757 99.8215 122.727L99.8688 124.727C98.5324 124.758 97.1261 124.714 95.6559 124.603L95.8065 122.609ZM113.32 104.214C113.235 103.553 113.133 102.87 113.014 102.166C112.9 101.492 112.795 100.825 112.699 100.165L114.679 99.8779C114.772 100.523 114.874 101.174 114.986 101.833C115.109 102.561 115.215 103.27 115.303 103.959L113.32 104.214ZM87.7416 121.486C89.1248 121.749 90.4624 121.974 91.7522 122.158L91.4696 124.138C90.1456 123.949 88.7776 123.719 87.3685 123.451L87.7416 121.486ZM112.22 96.1797C112.089 94.8104 111.998 93.4727 111.943 92.1666L113.941 92.0817C113.995 93.3526 114.084 94.6553 114.211 95.99L112.22 96.1797ZM79.7392 119.702C81.1029 120.043 82.4352 120.361 83.7344 120.653L83.2964 122.604C81.9795 122.309 80.6313 121.987 79.2539 121.642L79.7392 119.702ZM111.883 88.1318C111.902 86.7544 111.962 85.4156 112.057 84.1154L114.052 84.2618C113.959 85.5224 113.902 86.8215 113.883 88.1593L111.883 88.1318ZM112.48 80.0924C112.669 78.7196 112.897 77.3953 113.16 76.1192L115.119 76.5228C114.865 77.7557 114.644 79.0363 114.461 80.3649L112.48 80.0924ZM71.7903 117.568C73.1365 117.95 74.4596 118.317 75.7583 118.666L75.2382 120.598C73.9299 120.245 72.5983 119.876 71.2448 119.492L71.7903 117.568ZM114.113 72.1907C114.49 70.8426 114.904 69.5576 115.345 68.3351L117.226 69.0134C116.802 70.1909 116.403 71.4296 116.039 72.7301L114.113 72.1907ZM116.86 64.5824C117.441 63.288 118.045 62.0813 118.658 60.961L120.413 61.9208C119.824 62.9965 119.243 64.1563 118.684 65.4013L116.86 64.5824ZM63.882 115.25C65.217 115.651 66.5342 116.044 67.8326 116.425L67.2689 118.344C65.9656 117.961 64.6442 117.567 63.3059 117.165L63.882 115.25ZM120.754 57.4781C121.58 56.2278 122.388 55.1329 123.14 54.1903L124.703 55.4376C123.986 56.336 123.214 57.3826 122.423 58.5802L120.754 57.4781ZM127.375 49.7188C127.375 49.7187 127.375 49.7186 128 50.4995C128.625 51.2804 128.625 51.2803 128.625 51.2802L128.623 51.2815L128.609 51.293C128.596 51.304 128.574 51.322 128.545 51.3468C128.486 51.3965 128.396 51.4738 128.278 51.579C128.042 51.7893 127.695 52.1109 127.264 52.5458L125.844 51.1366C126.306 50.6716 126.682 50.3224 126.946 50.0869C127.078 49.9691 127.182 49.8797 127.255 49.8184C127.291 49.7877 127.319 49.7641 127.34 49.7475L127.364 49.7278L127.371 49.7219L127.375 49.7188ZM55.9903 112.843C57.3198 113.252 58.6351 113.656 59.9356 114.053L59.3516 115.966C58.0494 115.568 56.7326 115.164 55.4025 114.755L55.9903 112.843ZM48.0938 110.416C49.4219 110.823 50.7389 111.228 52.0437 111.629L51.4556 113.541C50.1512 113.139 48.8352 112.735 47.5084 112.329L48.0938 110.416ZM40.1777 108.02C41.5074 108.417 42.8281 108.814 44.1389 109.211L43.559 111.126C42.2504 110.729 40.9324 110.332 39.6059 109.937L40.1777 108.02ZM25.1318 105.497C24.8574 105.017 25.0235 104.406 25.5028 104.132L33.3133 99.6602C33.7926 99.3858 34.4036 99.5519 34.678 100.031C34.9524 100.51 34.7863 101.121 34.3071 101.396L28.1718 104.908L27.8226 106.171L31.3392 112.313C31.6136 112.793 31.4475 113.404 30.9682 113.678C30.4889 113.952 29.8779 113.786 29.6035 113.307L25.1318 105.497ZM32.2434 105.702C33.5741 106.081 34.8978 106.464 36.2136 106.849L35.6523 108.768C34.3404 108.385 33.0211 108.003 31.695 107.625L32.2434 105.702Z" fill="black"/>
</svg>
