<svg width="86" height="43" viewBox="0 0 86 43" fill="none" xmlns="http://www.w3.org/2000/svg">
<path d="M15.2736 2.37708C14.385 2.46308 10.7438 3.12981 10.2805 4.29673C6.86688 6.0489 5.31731 9.91374 2.96736 12.8512C1.27737 14.9637 2.19307 18.3027 2.78901 20.6014C3.29686 22.5602 3.52918 24.4263 4.41039 26.2924C4.90769 27.3455 5.07724 28.5997 5.64264 29.6C5.93096 30.1101 6.30445 30.3502 6.45333 30.9458C7.02029 33.2136 11.9863 34.4457 13.7495 35.3397C17.4986 37.2406 21.646 38.0239 25.7153 38.9716C28.2219 39.5553 30.7333 39.897 33.3033 40.0255C35.6832 40.1445 37.9977 40.8262 40.3726 40.8848C43.0408 40.9507 45.6742 41.4685 48.3497 41.4685H57.8834C64.5882 41.4685 71.6345 40.955 77.5021 37.3988C79.1819 36.3808 80.589 35.1272 81.7501 33.5237C82.7371 32.1608 82.8832 30.6197 83.485 29.065C84.3259 26.8925 83.7931 23.8462 83.7931 21.558C83.7931 19.279 83.6528 17.0623 83.485 14.7968C83.2868 12.1218 80.303 8.237 78.1182 6.88451C75.2339 5.09895 72.4647 4.16414 69.0385 3.59311C67.3951 3.31921 65.5004 3.31734 63.8501 3.25262C60.6731 3.12803 57.5209 2.68938 54.3488 2.65271C47.0781 2.56866 39.7885 2.1168 32.5251 2.06901C26.7959 2.03132 20.9831 1.82454 15.2736 2.37708Z" fill="#BA242D"/>
<path d="M10.2474 4.4038C10.5214 3.1706 14.3581 2.46567 15.2736 2.37708C20.9831 1.82454 26.7959 2.03132 32.5251 2.06901C39.7885 2.1168 47.0781 2.56866 54.3488 2.65271C57.5209 2.68938 60.6731 3.12803 63.8501 3.25262C65.5004 3.31734 67.3951 3.31921 69.0385 3.59311C72.4647 4.16414 75.2339 5.09895 78.1182 6.88451C80.303 8.237 83.2868 12.1218 83.485 14.7968C83.6528 17.0623 83.7931 19.279 83.7931 21.558C83.7931 23.8462 84.3259 26.8925 83.485 29.065C82.8832 30.6197 82.7371 32.1608 81.7501 33.5237C80.589 35.1272 79.1819 36.3808 77.5021 37.3988C71.6345 40.955 64.5882 41.4685 57.8834 41.4685C54.7055 41.4685 51.5276 41.4685 48.3497 41.4685C45.6742 41.4685 43.0408 40.9507 40.3726 40.8848C37.9977 40.8262 35.6832 40.1445 33.3033 40.0255C30.7333 39.897 28.2219 39.5553 25.7153 38.9716C21.646 38.0239 17.4986 37.2406 13.7495 35.3397C11.9863 34.4457 7.02029 33.2136 6.45333 30.9458C6.30445 30.3502 5.93096 30.1101 5.64264 29.6C5.07724 28.5997 4.90769 27.3455 4.41039 26.2924C3.52918 24.4263 3.29686 22.5602 2.78901 20.6014C2.19307 18.3027 1.27737 14.9637 2.96736 12.8512C5.56289 9.60677 7.18201 5.23101 11.4147 3.8201" stroke="black" stroke-width="3" stroke-linecap="round"/>
</svg>
