<svg width="24" height="24" viewBox="0 0 24 24" fill="none" xmlns="http://www.w3.org/2000/svg">
<path d="M6.80588 14.3329C6.5625 14.3329 6.31956 14.3601 6.09298 14.2738C5.88528 14.1947 5.6064 14.1748 5.38641 14.1409C5.29352 14.1266 5.20438 14.0623 5.11644 14.0312C4.98745 13.9857 4.85341 13.9876 4.7389 13.9068C4.48665 13.7288 4.37612 13.6399 4.37612 13.3078C4.37612 12.2366 4.23862 11.1873 4.18629 10.1145C4.11907 8.73645 3.80424 7.32091 4.18418 5.95945C4.23752 5.76834 4.22532 5.56608 4.26433 5.371C4.2943 5.22117 4.37025 5.05922 4.43307 4.91963C4.65759 4.4207 5.37568 4.28792 5.83567 4.17931C6.8115 3.94891 7.83729 4.00636 8.83491 4.00636C9.82877 4.00636 10.8192 4.04433 11.8131 4.04433C12.4402 4.04433 13.1122 4.00962 13.7155 4.1772C13.8857 4.22449 14.1547 4.49011 14.2006 4.66864C14.2386 4.81614 14.323 4.93681 14.323 5.09048V6.20834M9.91902 11.1818C9.91902 11.1882 9.919 11.1947 9.91896 11.2012M9.91896 11.2012C9.91662 11.6018 9.84309 11.9966 9.84309 12.3966C9.84309 13.0234 9.85513 13.6535 9.74818 14.2738C9.62838 14.9686 9.55501 15.6668 9.44657 16.364C9.35917 16.9258 9.3941 17.5941 9.55624 18.1378C9.66915 18.5164 9.75141 18.9122 9.92746 19.2683C9.9926 19.4001 10.0793 19.7362 10.1932 19.8294C10.2462 19.8728 10.4599 19.8378 10.5265 19.8378C10.7333 19.8378 10.9443 19.8499 11.1508 19.8357C12.0147 19.7761 12.8763 19.6859 13.7451 19.6859C14.268 19.6859 14.7727 19.7559 15.2932 19.7619C15.5315 19.7646 15.7737 19.8031 16.0103 19.8294C16.2483 19.8558 16.4806 19.9271 16.7148 19.9475C17.0419 19.9759 17.352 20.0276 17.6829 20.0276C17.9118 20.0276 18.1407 19.9897 18.3662 19.9897C18.6498 19.9897 18.9477 19.591 19.1741 19.4455C19.4069 19.2958 19.4103 19.1085 19.4103 18.8423C19.4103 18.3306 19.3388 17.7539 19.4504 17.252C19.5173 16.9506 19.5621 16.6354 19.5621 16.326C19.5621 16.0673 19.6345 15.8218 19.6381 15.5646C19.6447 15.0917 19.6381 14.6181 19.6381 14.1451C19.6381 13.6441 19.6406 13.1784 19.7478 12.6961C19.7776 12.562 19.7647 12.4154 19.7942 12.2827C19.8298 12.1225 19.9268 12.0013 19.9502 11.8272C19.9891 11.5379 19.9931 11.3119 19.8954 11.0383C19.8493 10.9094 19.8486 10.762 19.7815 10.6418C19.7107 10.5149 19.6502 10.3945 19.6191 10.2516C19.5652 10.0035 19.6096 9.81969 19.2964 9.77494C19.1066 9.74784 18.9189 9.75828 18.7269 9.73909C18.6124 9.72763 18.5364 9.66316 18.4021 9.66316H17.9592C17.6143 9.66316 17.2999 9.57918 16.9636 9.54715C16.337 9.48747 15.6832 9.48704 15.0527 9.47333C14.6921 9.46549 14.3206 9.46606 13.9728 9.37631C13.6163 9.28431 13.2089 9.34555 12.8423 9.31936C12.4871 9.29399 12.1364 9.28351 11.7772 9.28351C11.6277 9.28351 11.5321 9.34636 11.3954 9.36155C11.1905 9.38432 10.9523 9.41435 10.7627 9.49864C10.6123 9.56549 10.4129 9.65195 10.2987 9.76018C10.2165 9.83801 10.1852 9.89093 10.111 9.98375C10.0108 10.109 10.058 10.2796 9.99495 10.4182C9.95955 10.4961 9.92764 10.602 9.91902 10.6882L9.91896 11.2012Z" stroke="#9E9E9E" stroke-width="2" stroke-linecap="round"/>
</svg>
