<svg width="27" height="27" viewBox="0 0 27 27" fill="none" xmlns="http://www.w3.org/2000/svg">
<path d="M4.06609 6.58598C4.52393 5.655 6.02393 4.155 8.02393 2.655C9.92108 2.02261 10.8633 1.57208 12.7474 0.837615C14.0085 0.346017 14.9195 0.587779 16.2345 0.893587C18.1025 1.32801 19.8666 1.79604 21.4791 2.86382C23.289 4.06229 25.0804 5.85023 25.9961 7.83416C26.8738 9.73588 26.4736 12.0561 26.248 14.0695C26.1256 15.1612 25.8537 16.2728 25.3356 17.2487C24.782 18.2915 23.9473 19.1856 23.2422 20.1257C22.5489 21.0502 21.907 22.0156 21.2104 22.9355C20.5122 23.8577 19.4747 24.4077 18.4118 24.8106C15.3149 25.9844 11.6774 26.8989 8.34238 26.7584C6.98078 26.7011 5.72798 26.4143 4.72656 25.4487C2.00768 22.8269 -0.409873 19.4813 0.0584655 15.4744C0.436532 12.2398 1.88185 8.99814 4.06609 6.58598Z" fill="black"/>
<path d="M8 14.8545C8.22512 14.8545 8.36145 14.8921 8.55337 15.0212C8.94511 15.2848 9.37537 15.5011 9.67454 15.8848C9.99496 16.2959 10.3708 16.6712 10.7043 17.0742C10.9765 17.4032 11.3014 17.6832 11.5945 17.9909M11.7677 18.3091C11.8563 18.1661 11.9909 18.0759 12.1118 17.9656C12.3342 17.7629 12.5285 17.5128 12.7229 17.2813C13.012 16.937 13.2595 16.5606 13.5385 16.2081C13.7512 15.9393 14.0085 15.7435 14.2555 15.5136C15.1266 14.7028 15.6695 13.5932 16.6566 12.9025C16.9777 12.6778 17.2356 12.3863 17.4746 12.0717C17.7226 11.7454 18.046 11.564 18.2638 11.203C18.4606 10.8768 18.7763 10.6221 19 10.3091" stroke="white" stroke-width="3" stroke-linecap="round"/>
</svg>
