<svg width="27" height="27" viewBox="0 0 27 27" fill="none" xmlns="http://www.w3.org/2000/svg">
<path d="M4.06609 6.58622C4.52393 5.65524 6.02393 4.15524 8.02393 2.65524C9.92108 2.02286 10.8633 1.57232 12.7474 0.837859C14.0085 0.346261 14.9195 0.588023 16.2345 0.893831C18.1025 1.32825 19.8666 1.79629 21.4791 2.86406C23.289 4.06253 25.0804 5.85048 25.9961 7.83441C26.8738 9.73613 26.4736 12.0564 26.248 14.0697C26.1256 15.1614 25.8537 16.273 25.3356 17.249C24.782 18.2917 23.9473 19.1859 23.2422 20.1259C22.5489 21.0504 21.907 22.0158 21.2104 22.9358C20.5122 23.858 19.4747 24.408 18.4118 24.8108C15.3149 25.9847 11.6774 26.8991 8.34238 26.7587C6.98078 26.7013 5.72798 26.4146 4.72656 25.4489C2.00768 22.8271 -0.409873 19.4815 0.0584655 15.4746C0.436532 12.2401 1.88185 8.99838 4.06609 6.58622Z" fill="#BA242D"/>
<path d="M14.4326 6.83105V16.6133C14.4326 17.1348 14.1719 17.3955 13.6504 17.3955C13.1289 17.3955 12.8682 17.1348 12.8682 16.6133C12.8682 16.373 12.8594 16.0156 12.8418 15.541C12.8301 15.0605 12.8242 14.7031 12.8242 14.4688C12.8242 13.6191 12.8301 12.3477 12.8418 10.6543C12.8594 8.95508 12.8682 7.68066 12.8682 6.83105C12.8682 6.30957 13.1289 6.04883 13.6504 6.04883C14.1719 6.04883 14.4326 6.30957 14.4326 6.83105ZM14.4414 19.9531C14.4414 20.1641 14.3564 20.3457 14.1865 20.498C14.0225 20.6562 13.835 20.7354 13.624 20.7354C13.3896 20.7354 13.1553 20.583 12.9209 20.2783C12.6924 19.9912 12.5781 19.7275 12.5781 19.4873C12.5781 19.2764 12.6602 19.0947 12.8242 18.9424C12.9941 18.79 13.1875 18.7139 13.4043 18.7139C13.6328 18.7139 13.8672 18.8662 14.1074 19.1709C14.3301 19.458 14.4414 19.7188 14.4414 19.9531Z" fill="white"/>
</svg>
