<svg width="17" height="16" viewBox="0 0 17 16" fill="none" xmlns="http://www.w3.org/2000/svg">
<path d="M4.27644 6.72559C4.1171 6.72559 3.99967 6.8894 3.87318 6.99002C3.59874 7.20832 3.3996 7.50659 3.13277 7.73704C2.88139 7.95413 2.71826 8.27453 2.4783 8.52373C2.10839 8.90786 1.86985 9.41529 1.51312 9.793C1.41716 9.8946 1.36183 10.0061 1.26852 10.1169C1.19399 10.2054 1.25336 10.4185 1.21233 10.5334C1.09596 10.8592 1.03618 11.2048 1.00739 11.5647C0.992979 11.7448 1.00409 11.9296 1.00409 12.1101C1.00409 12.3057 1.08736 12.2834 1.15613 12.4406C1.27582 12.7142 1.46926 13.2915 1.7445 13.4488C1.84119 13.504 1.85671 13.6327 1.9329 13.6835C2.03647 13.7525 2.24374 13.791 2.31303 13.8785C2.45128 14.0531 2.82247 14.1873 3.02699 14.295C3.2813 14.4288 3.53112 14.5657 3.80046 14.6255C4.44655 14.7691 5.18945 14.7577 5.84981 14.7577C6.29991 14.7577 6.57546 14.4873 6.86457 14.1661C6.97979 14.038 7.1074 14.0429 7.19842 13.895C7.2694 13.7797 7.53576 13.6 7.66448 13.5678C7.96319 13.4931 8.26928 12.9345 8.49744 12.7348C8.59045 12.6534 8.69171 12.4149 8.79823 12.3844C8.8954 12.3567 8.9959 12.2801 9.06597 12.196C9.18295 12.0557 9.32101 11.9145 9.4527 11.7829M6.89453 4.22662C7.11984 4.19846 7.37765 3.69062 7.52256 3.54571C7.76402 3.30425 7.94037 2.95249 8.18033 2.73919C8.39807 2.54565 8.64135 2.37009 8.87777 2.20371C9.01437 2.10759 9.10122 1.9506 9.2612 1.89301C9.57146 1.78131 9.89599 1.57204 10.1801 1.3972C10.2902 1.32945 10.4845 1.27703 10.6131 1.24845C10.8106 1.20457 10.9487 1.06149 11.1486 1.01707C11.3123 0.980691 11.5171 1.01377 11.6841 1.01377C11.7712 1.01377 11.8652 1.00358 11.9518 1.01377C12.0261 1.02251 12.0276 1.1195 12.127 1.13607C12.1948 1.14737 12.4959 1.32644 12.5435 1.37406C12.6735 1.50409 12.7506 1.63251 12.9038 1.72443C13.2166 1.91211 13.5552 2.08807 13.9119 2.14752C14.0494 2.17043 14.5571 2.97368 14.5697 3.08295C14.5756 3.13463 14.7648 3.42874 14.8077 3.4796C14.865 3.5477 14.9825 3.84992 14.9862 3.94236C14.9934 4.12272 15.1052 4.28019 15.1052 4.43486V4.97034C15.1052 5.15349 15.1519 5.40032 15.0754 5.56862C15.0314 5.66553 14.9473 5.85115 14.93 5.95535C14.8101 6.6744 14.1827 7.25798 13.6904 7.75019C13.1849 8.25571 12.524 8.71168 12.0113 9.2244M10.7019 5.29761C10.5539 5.31612 10.5767 5.5119 10.4177 5.58187C10.3365 5.61759 10.2264 5.81619 10.1334 5.89589C9.94378 6.05843 9.77775 6.27469 9.59794 6.4545C9.35898 6.69346 9.09669 6.80979 8.88728 7.11228C8.79057 7.25197 8.63606 7.32555 8.51377 7.45273C8.40923 7.56146 8.29842 7.65495 8.19976 7.77005C7.97006 8.03803 7.59337 8.23423 7.39654 8.52368C7.27997 8.69511 7.01566 8.98143 6.85446 9.10544C6.4855 9.38925 5.94067 9.85289 5.76367 10.2954" stroke="black" stroke-width="2" stroke-linecap="round"/>
</svg>
