<svg width="24" height="17" viewBox="0 0 24 17" fill="none" xmlns="http://www.w3.org/2000/svg">
<path fill-rule="evenodd" clip-rule="evenodd" d="M11.3354 0.7585C11.9314 0.784827 12.4756 0.808863 13 0.808863C13.82 0.808863 14.2619 1.40659 14.4556 1.81725C14.6514 2.23242 14.7379 2.72058 14.7825 3.12454C14.8583 3.81034 14.838 4.56568 14.8298 4.87281C14.8283 4.92999 14.8272 4.97163 14.8272 4.9944C14.8272 4.99442 14.8272 4.99438 14.8272 4.9944V5.00941C14.8272 5.7918 14.7912 6.61017 14.7492 7.41804C14.8593 7.40795 14.9693 7.39673 15.0793 7.38426C16.541 7.21865 17.9758 7.10504 19.4803 7.10504C19.6229 7.10504 19.7703 7.09322 19.947 7.07482C19.8121 6.94334 19.677 6.81588 19.541 6.69367C19.3704 6.54024 19.2361 6.41141 19.1208 6.30074C18.8735 6.06342 18.7132 5.90963 18.4675 5.77599C17.9823 5.51213 17.8029 4.90491 18.0668 4.41974C18.3307 3.93457 18.9379 3.75516 19.4231 4.01902C19.9253 4.29217 20.3602 4.71121 20.6644 5.00437C20.7453 5.08227 20.8169 5.15128 20.8781 5.2063C21.3676 5.64635 21.8333 6.13159 22.255 6.57529C22.7479 7.09392 23.2131 7.65971 23.6208 8.26439C23.623 8.26767 23.6267 8.27299 23.6316 8.28007C23.6639 8.32667 23.749 8.4493 23.8117 8.5661C23.8932 8.71812 24 8.96571 24 9.28003C24 9.73077 23.7282 10.0067 23.636 10.0923C23.5194 10.2006 23.3984 10.2711 23.3325 10.3073C23.2584 10.348 23.1871 10.381 23.1468 10.3995C23.1164 10.4135 23.1034 10.4195 23.1001 10.421C22.8006 10.5831 22.4917 10.7035 22.246 10.7992C22.2324 10.8045 22.219 10.8098 22.2057 10.8149C21.9294 10.9227 21.7257 11.0051 21.5447 11.1078C21.342 11.2227 21.1452 11.3585 20.9249 11.519C20.8685 11.5602 20.8082 11.6047 20.7452 11.6512C20.5782 11.7746 20.3921 11.912 20.208 12.0379C20.199 12.044 20.1794 12.0579 20.1532 12.0765C20.0753 12.132 19.9386 12.2292 19.8487 12.2866C19.6941 12.3854 19.4667 12.5145 19.1853 12.5841C18.6491 12.7166 18.107 12.3894 17.9745 11.8533C17.8428 11.3205 18.1651 10.7818 18.6953 10.6451C18.7009 10.6424 18.7247 10.6314 18.7715 10.6015C18.8075 10.5785 18.8474 10.5508 18.9002 10.5132C18.9099 10.5063 18.9207 10.4986 18.9322 10.4904C18.9752 10.4596 19.0287 10.4214 19.0792 10.3868C19.2316 10.2826 19.3711 10.1796 19.5258 10.0653C19.5955 10.0138 19.6684 9.96003 19.7469 9.90281C19.9854 9.72892 20.2552 9.53975 20.5583 9.36791C20.8677 9.19249 21.1858 9.06612 21.4417 8.96618C21.2204 8.99545 21.0014 8.99932 20.8742 9.00157C20.838 9.00221 20.8092 9.00272 20.7899 9.00365C20.6447 9.01065 20.5027 9.02619 20.3254 9.04562C20.2926 9.0492 20.2586 9.05293 20.2232 9.05675C20.0103 9.07972 19.7543 9.10504 19.4803 9.10504C18.0771 9.10504 16.7228 9.21084 15.3045 9.37155C15.0865 9.39624 14.867 9.41652 14.6464 9.43306C14.639 9.61318 14.6327 9.79045 14.6279 9.96426C14.6246 10.0849 14.6426 10.3412 14.6822 10.7402C14.6968 10.8878 14.7148 11.0594 14.7339 11.2409C14.7605 11.4943 14.7891 11.767 14.8133 12.0201C14.8565 12.4711 14.8945 12.9447 14.9034 13.3612C14.9112 13.7281 14.9041 14.2149 14.769 14.5933C14.3817 15.6785 13.3149 15.852 12.7604 15.8883C12.4624 15.9078 12.1582 15.8979 11.9227 15.8902C11.9106 15.8898 11.8987 15.8894 11.887 15.889C11.6134 15.8802 11.4578 15.8782 11.3565 15.8899L11.2994 15.8965H11.2418C8.92069 15.8965 6.61799 16.0599 4.26853 16.2642C3.58693 16.3234 2.86337 16.3104 2.21033 16.2986C1.96015 16.2941 1.72033 16.2898 1.49718 16.2898C1.49687 16.2898 1.49294 16.2898 1.48625 16.2899C1.44277 16.2905 1.28263 16.2928 1.24392 16.2921L1.24067 16.2921C1.16052 16.2908 0.922837 16.2871 0.677572 16.1705C0.350752 16.0152 0.161904 15.7435 0.0747839 15.4792C0.00585115 15.2701 0 15.0656 0 14.9402V13.9351C0 11.4908 0.451367 7.0643 0.746105 4.42607C0.943375 2.66028 2.30429 1.21624 4.1036 0.996818C7.46117 0.587366 9.6144 0.682479 11.3354 0.7585ZM12.7419 7.49954C12.2024 7.50038 11.6565 7.48946 11.1001 7.47832C10.5441 7.4672 9.97772 7.45587 9.39701 7.45587H6.52773C5.97545 7.45587 5.52773 7.90358 5.52773 8.45587C5.52773 9.00815 5.97545 9.45587 6.52773 9.45587H9.39701C9.88891 9.45587 10.4022 9.46612 10.9284 9.47663C11.4882 9.48781 12.0627 9.49928 12.6419 9.49902C12.637 9.63398 12.6325 9.77052 12.6287 9.90887C12.6212 10.1799 12.6553 10.5678 12.6919 10.9375C12.7098 11.1175 12.7285 11.295 12.7475 11.4755C12.7723 11.7113 12.7977 11.9522 12.8224 12.2105C12.8644 12.65 12.8966 13.0638 12.9038 13.4038C12.9088 13.6387 12.8996 13.7825 12.8924 13.8572C12.8434 13.8697 12.7612 13.884 12.6299 13.8926C12.4328 13.9055 12.2159 13.8986 11.9515 13.8901L11.9288 13.8893C11.7183 13.8825 11.4432 13.8736 11.191 13.8965C8.79851 13.8989 6.44313 14.0676 4.09532 14.2717C3.52362 14.3214 2.96878 14.3112 2.36074 14.3001C2.24267 14.2979 2.12259 14.2957 2 14.2939V13.9351C2 11.6237 2.43589 7.31424 2.73374 4.64812C2.8321 3.7677 3.50191 3.08501 4.3457 2.98211C7.52332 2.5946 9.44455 2.67944 11.1398 2.75429C11.6703 2.77772 12.1786 2.80017 12.6965 2.80686C12.7334 2.93242 12.7689 3.1115 12.7946 3.34408C12.8522 3.86519 12.8397 4.39464 12.8315 4.7452C12.8291 4.84379 12.8272 4.92822 12.8272 4.99435V5.00941C12.8272 5.86866 12.7873 6.67624 12.7419 7.49954ZM12.9558 13.8325C12.9571 13.8332 12.9518 13.8375 12.936 13.8437C12.9466 13.835 12.9545 13.8319 12.9558 13.8325ZM22.369 8.55466C22.3684 8.55499 22.3678 8.55535 22.367 8.55575C22.3722 8.55264 22.3733 8.55231 22.369 8.55466Z" fill="black"/>
</svg>
