<svg width="195" height="140" viewBox="0 0 195 140" fill="none" xmlns="http://www.w3.org/2000/svg">
<path d="M105.844 20.8648C105.582 20.7509 105.436 20.5827 105.407 20.3603C105.39 20.205 105.439 19.92 105.557 19.5054C105.159 19.4408 104.535 19.3687 103.684 19.2892C102.782 19.2614 102.231 19.4711 102.031 19.9182C102.152 20.0329 102.276 20.1322 102.404 20.2162C103.419 20.8887 104.119 21.513 104.505 22.0891C105.066 22.9286 105.14 23.8238 104.728 24.7747C104.39 25.5536 103.799 25.9952 102.953 26.0997C102.253 26.1822 101.475 26.038 100.62 25.6671C99.9939 25.3957 99.4422 25.0316 98.9647 24.5747C98.3449 23.9881 98.1386 23.4558 98.3458 22.978C98.4286 22.7868 98.5752 22.6517 98.7855 22.5726C99.0006 22.4955 99.2037 22.4984 99.3948 22.5813C99.543 22.6455 99.6844 22.8431 99.8191 23.174C99.8861 23.3336 100.105 23.5363 100.475 23.782C100.77 23.9782 101.028 24.1239 101.248 24.2193C101.649 24.3933 102.023 24.4988 102.371 24.5359C102.875 24.59 103.193 24.4665 103.323 24.1655C103.605 23.5156 103.342 22.8792 102.533 22.2561L101.859 21.768C101.284 21.3539 100.903 20.9956 100.716 20.6932C100.445 20.2578 100.426 19.7701 100.661 19.2301C101.094 18.2314 101.873 17.7236 102.999 17.7065C103.341 17.7018 103.867 17.7478 104.574 17.8445C105.283 17.9364 105.801 17.9793 106.128 17.9731C106.361 17.9721 106.592 18.0213 106.821 18.1207C107.027 18.2098 107.165 18.3493 107.236 18.539C107.312 18.7308 107.303 18.9342 107.21 19.1493C107.15 19.2878 107.09 19.5033 107.032 19.7958C106.978 20.0903 106.921 20.3069 106.861 20.4455C106.768 20.6605 106.625 20.8059 106.433 20.8817C106.246 20.9595 106.05 20.9539 105.844 20.8648ZM112.264 23.6483C112.001 23.5344 111.855 23.3662 111.827 23.1438C111.809 22.9885 111.859 22.7035 111.976 22.2889C111.578 22.2243 110.954 22.1522 110.103 22.0727C109.201 22.0449 108.65 22.2546 108.451 22.7017C108.571 22.8164 108.696 22.9158 108.824 22.9997C109.838 23.6722 110.538 24.2965 110.924 24.8726C111.485 25.7121 111.56 26.6073 111.147 27.5582C110.81 28.3371 110.218 28.7788 109.372 28.8832C108.672 28.9657 107.895 28.8215 107.039 28.4507C106.413 28.1792 105.862 27.8151 105.384 27.3583C104.764 26.7716 104.558 26.2393 104.765 25.7615C104.848 25.5703 104.995 25.4352 105.205 25.3561C105.42 25.279 105.623 25.282 105.814 25.3648C105.962 25.4291 106.104 25.6266 106.238 25.9575C106.305 26.1172 106.524 26.3198 106.894 26.5656C107.19 26.7617 107.447 26.9075 107.667 27.0028C108.068 27.1768 108.443 27.2824 108.79 27.3194C109.295 27.3735 109.612 27.2501 109.743 26.949C110.024 26.2992 109.761 25.6627 108.953 25.0397L108.279 24.5516C107.703 24.1374 107.322 23.7791 107.135 23.4768C106.864 23.0413 106.846 22.5536 107.08 22.0137C107.513 21.015 108.292 20.5071 109.418 20.49C109.761 20.4853 110.286 20.5313 110.993 20.628C111.703 20.7199 112.221 20.7628 112.547 20.7567C112.78 20.7556 113.011 20.8048 113.241 20.9043C113.446 20.9934 113.584 21.1328 113.655 21.3225C113.731 21.5143 113.723 21.7178 113.629 21.9328C113.569 22.0714 113.51 22.2869 113.451 22.5793C113.397 22.8739 113.34 23.0904 113.28 23.229C113.187 23.444 113.044 23.5894 112.853 23.6652C112.665 23.7431 112.469 23.7374 112.264 23.6483ZM118.683 26.4319C118.42 26.3179 118.275 26.1497 118.246 25.9274C118.228 25.772 118.278 25.4871 118.396 25.0724C117.998 25.0078 117.373 24.9358 116.522 24.8562C115.62 24.8285 115.07 25.0381 114.87 25.4852C114.991 25.5999 115.115 25.6993 115.243 25.7833C116.257 26.4557 116.957 27.08 117.343 27.6562C117.905 28.4956 117.979 29.3908 117.567 30.3417C117.229 31.1206 116.637 31.5623 115.792 31.6667C115.092 31.7493 114.314 31.6051 113.459 31.2342C112.833 30.9627 112.281 30.5986 111.803 30.1418C111.184 29.5551 110.977 29.0229 111.184 28.545C111.267 28.3539 111.414 28.2187 111.624 28.1396C111.839 28.0626 112.042 28.0655 112.234 28.1484C112.382 28.2126 112.523 28.4102 112.658 28.7411C112.725 28.9007 112.943 29.1034 113.314 29.3491C113.609 29.5453 113.867 29.691 114.086 29.7863C114.488 29.9604 114.862 30.0659 115.209 30.1029C115.714 30.1571 116.031 30.0336 116.162 29.7326C116.444 29.0827 116.18 28.4462 115.372 27.8232L114.698 27.3351C114.123 26.921 113.741 26.5627 113.555 26.2603C113.284 25.8249 113.265 25.3372 113.499 24.7972C113.932 23.7985 114.712 23.2906 115.838 23.2735C116.18 23.2688 116.705 23.3148 117.413 23.4115C118.122 23.5034 118.64 23.5463 118.966 23.5402C119.199 23.5391 119.431 23.5883 119.66 23.6878C119.866 23.7769 120.004 23.9163 120.075 24.1061C120.151 24.2979 120.142 24.5013 120.049 24.7163C119.989 24.8549 119.929 25.0704 119.87 25.3629C119.817 25.6574 119.76 25.8739 119.699 26.0125C119.606 26.2276 119.464 26.373 119.272 26.4487C119.085 26.5266 118.889 26.521 118.683 26.4319ZM123.678 35.6824C123.339 35.5353 123.195 35.2574 123.247 34.8486C123.307 34.4091 123.448 33.8089 123.671 33.048C123.885 32.3178 124.089 31.7306 124.281 31.2862C124.335 31.1619 124.422 30.9752 124.541 30.7261C124.665 30.4791 124.754 30.2934 124.808 30.1692C125.198 29.2709 125.168 28.7243 124.719 28.5295C124.112 28.2664 123.45 28.306 122.734 28.6483C122.368 28.8246 121.801 29.2171 121.031 29.8259C120.242 31.6465 119.698 32.6909 119.4 32.9591C119.138 33.1973 118.866 33.2553 118.584 33.1331C118.388 33.0481 118.245 32.9066 118.155 32.7086C118.065 32.5106 118.061 32.316 118.144 32.1248C118.173 32.0579 118.24 31.9621 118.345 31.8374C118.435 31.7346 118.613 31.3971 118.878 30.8251L119.36 29.7737L121.665 24.5147C121.956 23.9367 122.146 23.545 122.235 23.3395C122.34 23.0958 122.416 22.8561 122.461 22.6203C122.514 22.3819 122.591 22.1456 122.692 21.9114C122.779 21.7107 122.92 21.5759 123.114 21.507C123.311 21.4333 123.51 21.4399 123.71 21.527C124.102 21.6969 124.24 22.0066 124.125 22.4561C124 22.9527 123.857 23.3874 123.696 23.7602C123.478 24.2619 123.235 24.7779 122.965 25.3081C122.71 25.8165 122.471 26.3346 122.248 26.8623L121.982 27.4962C122.602 27.1404 123.19 26.9299 123.746 26.8646C124.309 26.7965 124.842 26.8713 125.343 27.0888C126.137 27.4328 126.569 27.927 126.642 28.5716C126.695 29.0259 126.549 29.6893 126.205 30.5619L125.668 31.9558L125.165 33.5088C124.99 34.0969 124.858 34.6243 124.769 35.091C124.753 35.1805 124.732 35.254 124.707 35.3113C124.622 35.5072 124.48 35.6386 124.281 35.7055C124.08 35.7771 123.878 35.7694 123.678 35.6824ZM131.43 39.044C131.091 38.8969 130.948 38.619 131 38.2102C131.06 37.7707 131.201 37.1705 131.423 36.4096C131.638 35.6795 131.841 35.0922 132.034 34.6478C132.088 34.5235 132.174 34.3369 132.294 34.0877C132.418 33.8407 132.507 33.6551 132.561 33.5308C132.95 32.6325 132.92 32.0859 132.471 31.8912C131.864 31.628 131.203 31.6676 130.487 32.0099C130.121 32.1862 129.553 32.5787 128.784 33.1875C127.995 35.0081 127.451 36.0525 127.153 36.3207C126.891 36.5589 126.619 36.6169 126.337 36.4947C126.141 36.4097 125.998 36.2682 125.908 36.0702C125.817 35.8722 125.814 35.6776 125.897 35.4865C125.926 35.4196 125.993 35.3238 126.098 35.1991C126.188 35.0962 126.366 34.7587 126.631 34.1868L127.112 33.1353L129.418 27.8764C129.708 27.2983 129.898 26.9066 129.987 26.7011C130.093 26.4574 130.168 26.2177 130.214 25.9819C130.266 25.7435 130.343 25.5072 130.445 25.273C130.532 25.0723 130.672 24.9375 130.867 24.8686C131.064 24.7949 131.262 24.8016 131.463 24.8886C131.855 25.0585 131.993 25.3682 131.877 25.8177C131.753 26.3144 131.61 26.7491 131.448 27.1218C131.231 27.6235 130.987 28.1395 130.717 28.6697C130.463 29.1782 130.224 29.6962 130.001 30.2239L129.735 30.8578C130.354 30.5021 130.942 30.2915 131.499 30.2262C132.062 30.1581 132.594 30.2329 133.096 30.4505C133.889 30.7944 134.322 31.2886 134.394 31.9332C134.447 32.3875 134.302 33.051 133.957 33.9235L133.421 35.3174L132.918 36.8704C132.742 37.4585 132.61 37.9859 132.521 38.4526C132.505 38.5422 132.485 38.6156 132.46 38.6729C132.375 38.8689 132.233 39.0002 132.033 39.0671C131.832 39.1387 131.631 39.131 131.43 39.044ZM144.26 37.5225C143.997 37.4085 143.852 37.2403 143.823 37.018C143.806 36.8626 143.855 36.5777 143.973 36.163C143.575 36.0984 142.95 36.0264 142.099 35.9468C141.197 35.9191 140.647 36.1287 140.447 36.5758C140.568 36.6905 140.692 36.7899 140.82 36.8739C141.834 37.5464 142.534 38.1707 142.92 38.7468C143.482 39.5862 143.556 40.4814 143.144 41.4323C142.806 42.2112 142.214 42.6529 141.369 42.7574C140.669 42.8399 139.891 42.6957 139.036 42.3248C138.41 42.0534 137.858 41.6892 137.381 41.2324C136.761 40.6457 136.554 40.1135 136.762 39.6356C136.844 39.4445 136.991 39.3094 137.201 39.2302C137.416 39.1532 137.62 39.1561 137.811 39.239C137.959 39.3032 138.1 39.5008 138.235 39.8317C138.302 39.9913 138.521 40.194 138.891 40.4397C139.186 40.6359 139.444 40.7816 139.664 40.8769C140.065 41.051 140.439 41.1565 140.787 41.1936C141.291 41.2477 141.609 41.1242 141.739 40.8232C142.021 40.1733 141.758 39.5368 140.949 38.9138L140.275 38.4257C139.7 38.0116 139.319 37.6533 139.132 37.3509C138.861 36.9155 138.842 36.4278 139.076 35.8878C139.509 34.8891 140.289 34.3812 141.415 34.3641C141.757 34.3594 142.282 34.4054 142.99 34.5021C143.699 34.5941 144.217 34.6369 144.543 34.6308C144.777 34.6298 145.008 34.679 145.237 34.7784C145.443 34.8675 145.581 35.0069 145.652 35.1967C145.728 35.3885 145.719 35.5919 145.626 35.8069C145.566 35.9455 145.506 36.161 145.448 36.4535C145.394 36.748 145.337 36.9646 145.277 37.1031C145.183 37.3182 145.041 37.4636 144.849 37.5393C144.662 37.6172 144.466 37.6116 144.26 37.5225ZM150.68 40.306C150.417 40.1921 150.271 40.0239 150.243 39.8015C150.225 39.6462 150.275 39.3612 150.392 38.9466C149.994 38.882 149.37 38.8099 148.519 38.7304C147.617 38.7026 147.066 38.9123 146.866 39.3594C146.987 39.4741 147.111 39.5734 147.24 39.6574C148.254 40.3299 148.954 40.9542 149.34 41.5303C149.901 42.3698 149.976 43.265 149.563 44.2159C149.226 44.9948 148.634 45.4364 147.788 45.5409C147.088 45.6234 146.31 45.4792 145.455 45.1083C144.829 44.8369 144.277 44.4728 143.8 44.0159C143.18 43.4293 142.974 42.897 143.181 42.4192C143.264 42.228 143.41 42.0929 143.621 42.0138C143.836 41.9367 144.039 41.9396 144.23 42.0225C144.378 42.0867 144.52 42.2843 144.654 42.6152C144.721 42.7748 144.94 42.9775 145.31 43.2232C145.606 43.4194 145.863 43.5651 146.083 43.6605C146.484 43.8345 146.859 43.94 147.206 43.9771C147.71 44.0312 148.028 43.9077 148.158 43.6067C148.44 42.9568 148.177 42.3204 147.368 41.6973L146.694 41.2092C146.119 40.7951 145.738 40.4368 145.551 40.1344C145.28 39.699 145.262 39.2113 145.496 38.6713C145.929 37.6726 146.708 37.1648 147.834 37.1477C148.177 37.143 148.702 37.189 149.409 37.2857C150.119 37.3776 150.636 37.4205 150.963 37.4143C151.196 37.4133 151.427 37.4625 151.657 37.5619C151.862 37.651 152 37.7905 152.071 37.9802C152.147 38.172 152.138 38.3754 152.045 38.5905C151.985 38.729 151.926 38.9445 151.867 39.237C151.813 39.5315 151.756 39.7481 151.696 39.8867C151.603 40.1017 151.46 40.2471 151.268 40.3229C151.081 40.4007 150.885 40.3951 150.68 40.306ZM155.674 49.5565C155.335 49.4094 155.192 49.1315 155.244 48.7228C155.304 48.2833 155.445 47.6831 155.667 46.9221C155.881 46.192 156.085 45.6047 156.278 45.1603C156.332 45.0361 156.418 44.8494 156.538 44.6003C156.662 44.3532 156.751 44.1676 156.805 44.0433C157.194 43.145 157.164 42.5984 156.715 42.4037C156.108 42.1405 155.447 42.1801 154.731 42.5224C154.365 42.6987 153.797 43.0912 153.028 43.7C152.238 45.5206 151.695 46.565 151.397 46.8332C151.135 47.0715 150.862 47.1295 150.581 47.0072C150.385 46.9223 150.242 46.7808 150.151 46.5827C150.061 46.3847 150.058 46.1901 150.141 45.999C150.17 45.9321 150.237 45.8363 150.342 45.7116C150.432 45.6087 150.609 45.2713 150.874 44.6993L151.356 43.6478L153.662 38.3889C153.952 37.8109 154.142 37.4191 154.231 37.2136C154.337 36.9699 154.412 36.7302 154.458 36.4945C154.51 36.256 154.587 36.0197 154.689 35.7856C154.776 35.5849 154.916 35.4501 155.111 35.3811C155.307 35.3074 155.506 35.3141 155.707 35.4011C156.099 35.571 156.237 35.8807 156.121 36.3302C155.997 36.8269 155.854 37.2616 155.692 37.6343C155.475 38.136 155.231 38.652 154.961 39.1823C154.707 39.6907 154.468 40.2087 154.245 40.7364L153.978 41.3703C154.598 41.0146 155.186 40.804 155.743 40.7387C156.306 40.6707 156.838 40.7454 157.34 40.963C158.133 41.3069 158.566 41.8012 158.638 42.4457C158.691 42.9 158.545 43.5635 158.201 44.436L157.665 45.8299L157.162 47.383C156.986 47.971 156.854 48.4984 156.765 48.9652C156.749 49.0547 156.729 49.1281 156.704 49.1855C156.619 49.3814 156.477 49.5128 156.277 49.5796C156.076 49.6513 155.875 49.6436 155.674 49.5565ZM163.427 52.9182C163.088 52.771 162.944 52.4931 162.996 52.0844C163.056 51.6449 163.197 51.0447 163.42 50.2838C163.634 49.5536 163.838 48.9663 164.03 48.5219C164.084 48.3977 164.171 48.211 164.29 47.9619C164.414 47.7148 164.503 47.5292 164.557 47.405C164.947 46.5066 164.917 45.9601 164.468 45.7653C163.861 45.5021 163.199 45.5417 162.483 45.8841C162.117 46.0603 161.55 46.4528 160.78 47.0617C159.991 48.8823 159.447 49.9266 159.149 50.1948C158.887 50.4331 158.615 50.4911 158.333 50.3688C158.137 50.2839 157.994 50.1424 157.904 49.9444C157.814 49.7463 157.81 49.5517 157.893 49.3606C157.922 49.2937 157.989 49.1979 158.094 49.0732C158.184 48.9703 158.362 48.6329 158.627 48.0609L159.109 47.0094L161.414 41.7505C161.705 41.1725 161.895 40.7807 161.984 40.5753C162.089 40.3316 162.165 40.0918 162.21 39.8561C162.263 39.6176 162.34 39.3813 162.441 39.1472C162.528 38.9465 162.669 38.8117 162.863 38.7427C163.06 38.669 163.259 38.6757 163.459 38.7627C163.851 38.9326 163.989 39.2423 163.874 39.6918C163.749 40.1885 163.606 40.6232 163.445 40.9959C163.227 41.4976 162.984 42.0136 162.714 42.5439C162.459 43.0523 162.221 43.5704 161.997 44.0981L161.731 44.7319C162.351 44.3762 162.939 44.1657 163.495 44.1003C164.058 44.0323 164.591 44.107 165.092 44.3246C165.886 44.6685 166.318 45.1628 166.391 45.8073C166.444 46.2617 166.298 46.9251 165.954 47.7976L165.417 49.1915L164.914 50.7446C164.739 51.3327 164.607 51.8601 164.518 52.3268C164.502 52.4163 164.481 52.4897 164.456 52.5471C164.371 52.743 164.229 52.8744 164.03 52.9412C163.829 53.0129 163.628 53.0052 163.427 52.9182ZM166.001 54.2984C165.753 54.1907 165.58 54.0135 165.482 53.7669C165.385 53.5202 165.39 53.2727 165.498 53.0242C165.603 52.7805 165.78 52.6099 166.026 52.5125C166.275 52.4103 166.523 52.4131 166.772 52.5208C167.016 52.6265 167.185 52.805 167.281 53.0564C167.383 53.3051 167.381 53.5513 167.275 53.795C167.168 54.0435 166.988 54.2154 166.737 54.3108C166.49 54.4082 166.245 54.4041 166.001 54.2984ZM168.923 55.5652C168.674 55.4575 168.501 55.2803 168.404 55.0337C168.306 54.7871 168.312 54.5395 168.419 54.291C168.525 54.0473 168.701 53.8768 168.948 53.7793C169.196 53.6771 169.445 53.6799 169.693 53.7876C169.937 53.8933 170.107 54.0718 170.202 54.3232C170.304 54.5719 170.303 54.8181 170.197 55.0618C170.089 55.3103 169.91 55.4822 169.658 55.5776C169.412 55.675 169.166 55.6709 168.923 55.5652ZM171.844 56.832C171.596 56.7243 171.423 56.5471 171.325 56.3005C171.228 56.0539 171.233 55.8063 171.341 55.5579C171.446 55.3142 171.623 55.1436 171.869 55.0462C172.118 54.944 172.367 54.9467 172.615 55.0545C172.859 55.1601 173.028 55.3387 173.124 55.5901C173.226 55.8388 173.224 56.0849 173.118 56.3286C173.011 56.5771 172.831 56.749 172.58 56.8444C172.333 56.9418 172.088 56.9377 171.844 56.832Z" fill="black"/>
<path d="M176.652 31.6567C173.883 29.7016 171.141 27.7516 168.447 25.6936C165.942 23.7798 162.775 23.1249 159.673 22.5622C158.426 22.336 157.193 22.0739 156.016 21.755C150.034 20.134 144.528 17.4078 138.545 15.7496C135.176 14.8157 131.761 13.9929 128.402 13.0565C124.298 11.9127 120.54 9.76296 116.701 7.98905C112.546 6.06926 108.471 4.28135 103.921 3.64795C102.547 3.45665 99.5878 2.46344 98.2718 3.29989C97.1703 4.00001 96.3121 4.93631 95.4194 5.8696C93.4985 7.87768 91.4349 9.37669 89.8208 11.6981C86.3655 16.6675 85.13 22.4292 83.2921 28.0842C82.8601 29.4134 82.5896 30.7837 82.1259 32.1023C81.9558 32.586 81.2635 33.9098 81.563 34.4513C82.0669 35.3624 84.3836 36.0572 85.2253 36.4781C92.3429 40.0383 100.177 41.6927 107.569 44.5273C112.279 46.3331 117.11 47.767 121.661 49.9781C126.749 52.4502 131.835 54.9685 136.807 57.6659C144.372 61.77 152.292 65.2976 159.718 69.6373C161.633 70.7565 164.456 70.6146 166.59 70.6444C169.447 70.6843 171.49 68.3715 173.142 66.1961C176.636 61.5962 181.57 57.8945 184.381 52.7918C186.446 49.0422 189.722 45.7048 190.658 41.3602C190.857 40.4355 191.697 38.0156 190.423 37.8383L190.346 37.8276C189.581 37.7212 188.866 37.6219 188.131 37.3507C183.897 35.7875 180.38 34.2889 176.652 31.6567Z" stroke="#CFCECE" stroke-width="2" stroke-linecap="round"/>
<path d="M41.1305 71.5003L41.1305 72.5003L41.1305 71.5003ZM26.7544 130.427C27.2661 130.634 27.8494 130.388 28.0571 129.876L31.4432 121.537C31.651 121.026 31.4046 120.443 30.8929 120.235C30.3812 120.027 29.7979 120.273 29.5901 120.785L26.5803 128.197L19.1681 125.187C18.6564 124.98 18.0731 125.226 17.8653 125.738C17.6576 126.249 17.9039 126.833 18.4156 127.04L26.7544 130.427ZM112.047 53.0007C111.376 53.7422 111.376 53.742 111.376 53.7419C111.376 53.7419 111.376 53.7417 111.375 53.7417C111.375 53.7415 111.375 53.7414 111.375 53.7412C111.375 53.7409 111.374 53.7407 111.374 53.7405C111.374 53.7401 111.373 53.7398 111.373 53.7396C111.373 53.7394 111.373 53.7397 111.374 53.7405C111.376 53.7423 111.38 53.7462 111.387 53.7524C111.4 53.7647 111.421 53.7857 111.45 53.8149C111.508 53.8735 111.594 53.9645 111.697 54.0844C111.904 54.3259 112.171 54.6754 112.409 55.1051L114.158 54.1348C113.839 53.5597 113.487 53.0996 113.215 52.7826C113.079 52.6233 112.96 52.4979 112.873 52.4099C112.83 52.3658 112.794 52.331 112.768 52.3058C112.755 52.2932 112.744 52.2829 112.735 52.2752C112.731 52.2713 112.728 52.268 112.725 52.2654C112.723 52.264 112.722 52.2629 112.721 52.2618C112.72 52.2613 112.72 52.2609 112.719 52.2604C112.719 52.2602 112.719 52.26 112.719 52.2598C112.719 52.2597 112.718 52.2596 112.718 52.2595C112.718 52.2594 112.718 52.2592 112.047 53.0007ZM112.84 58.2734C112.592 59.0793 112.007 60.0263 110.777 61.0409L112.049 62.584C113.515 61.3754 114.365 60.1161 114.751 58.8615L112.84 58.2734ZM107.48 63.0755C106.447 63.5747 105.235 64.0715 103.817 64.5578L104.466 66.4496C105.947 65.9416 107.235 65.4153 108.35 64.8764L107.48 63.0755ZM99.9794 65.7075C98.7766 66.0234 97.4701 66.331 96.0519 66.6278L96.4615 68.5854C97.9097 68.2823 99.2492 67.9672 100.488 67.6418L99.9794 65.7075ZM92.0639 67.381C90.799 67.5965 89.462 67.8042 88.0494 68.0029L88.3279 69.9834C89.7585 69.7822 91.1146 69.5716 92.3999 69.3526L92.0639 67.381ZM84.0155 68.5205C82.7178 68.6721 81.365 68.8167 79.9549 68.9538L80.1483 70.9444C81.5707 70.8062 82.9364 70.6602 84.2476 70.507L84.0155 68.5205ZM75.8528 69.3173C74.5512 69.422 73.2061 69.5208 71.8162 69.6132L71.9488 71.6088C73.3477 71.5158 74.702 71.4164 76.0133 71.3108L75.8528 69.3173ZM67.7584 69.8573C66.4183 69.9299 65.0402 69.9969 63.623 70.058L63.7092 72.0561C65.1335 71.9947 66.5189 71.9274 67.8665 71.8544L67.7584 69.8573ZM59.595 70.212C58.2589 70.2569 56.8907 70.2968 55.4896 70.3315L55.5392 72.3309C56.946 72.296 58.32 72.256 59.6621 72.2109L59.595 70.212ZM51.4132 70.4164C50.0787 70.439 48.7163 70.4572 47.3255 70.4707L47.345 72.4706C48.7405 72.457 50.1077 72.4388 51.447 72.4161L51.4132 70.4164ZM43.2356 70.497C42.5406 70.4992 41.839 70.5003 41.1305 70.5003L41.1305 72.5003C41.841 72.5003 42.5448 72.4992 43.2419 72.497L43.2356 70.497ZM41.1305 70.5003C40.4102 70.5003 39.7099 70.5201 39.0294 70.5591L39.1438 72.5558C39.7847 72.5191 40.4468 72.5003 41.1305 72.5003L41.1305 70.5003ZM34.9402 71.0653C33.495 71.351 32.1589 71.7418 30.926 72.2294L31.6616 74.0892C32.7743 73.6491 33.9934 73.2912 35.3282 73.0273L34.9402 71.0653ZM27.1976 74.1988C25.9987 75.0209 24.9442 75.9619 24.0222 77.003L25.5195 78.329C26.3352 77.4078 27.2672 76.5761 28.3286 75.8483L27.1976 74.1988ZM21.61 80.4657C20.9496 81.6814 20.4096 82.9723 19.9749 84.3189L21.8781 84.9333C22.2791 83.6916 22.7722 82.5161 23.3674 81.4205L21.61 80.4657ZM18.9986 88.3426C18.7695 89.6766 18.6181 91.0459 18.5329 92.4361L20.5291 92.5585C20.6104 91.2321 20.7544 89.9356 20.9697 88.6811L18.9986 88.3426ZM18.4616 96.5202C18.4927 97.8712 18.5743 99.2316 18.6972 100.589L20.689 100.409C20.5698 99.0913 20.4911 97.776 20.4611 96.4741L18.4616 96.5202ZM19.1778 104.623C19.3749 105.97 19.6048 107.305 19.8587 108.615L21.8222 108.234C21.5736 106.952 21.3489 105.648 21.1567 104.333L19.1778 104.623ZM20.7111 112.578C21.029 113.928 21.3646 115.236 21.7066 116.488L23.6359 115.961C23.2995 114.73 22.9699 113.444 22.6578 112.12L20.7111 112.578ZM22.8364 120.371C23.2695 121.775 23.6939 123.064 24.0875 124.211L25.9791 123.561C25.5917 122.433 25.1738 121.163 24.7476 119.781L22.8364 120.371ZM25.4702 128.028C25.6971 128.62 25.881 129.084 26.0085 129.4C26.0723 129.558 26.1221 129.679 26.1561 129.761C26.1731 129.802 26.1862 129.834 26.1952 129.855C26.1996 129.866 26.2031 129.874 26.2055 129.88C26.2067 129.883 26.2076 129.885 26.2083 129.886C26.2086 129.887 26.2088 129.888 26.209 129.888C26.2091 129.888 26.2092 129.889 26.2093 129.889C26.2093 129.889 26.2093 129.889 26.2094 129.889C26.2094 129.889 26.2094 129.889 26.2094 129.889C26.2094 129.889 26.2094 129.889 27.1306 129.5C28.0518 129.111 28.0518 129.111 28.0518 129.111C28.0518 129.111 28.0518 129.111 28.0518 129.111C28.0518 129.111 28.0518 129.111 28.0518 129.111C28.0518 129.111 28.0518 129.111 28.0518 129.111C28.0517 129.111 28.0516 129.11 28.0514 129.11C28.0509 129.109 28.0503 129.107 28.0493 129.105C28.0474 129.1 28.0445 129.093 28.0405 129.084C28.0325 129.065 28.0204 129.036 28.0044 128.997C27.9724 128.92 27.9248 128.803 27.8631 128.651C27.7397 128.345 27.5603 127.893 27.338 127.313L25.4702 128.028ZM41.1305 71.5003L41.1305 72.5003L41.1305 71.5003ZM26.7544 130.427C27.2661 130.634 27.8494 130.388 28.0571 129.876L31.4432 121.537C31.651 121.026 31.4046 120.443 30.8929 120.235C30.3812 120.027 29.7979 120.273 29.5901 120.785L26.5803 128.197L19.1681 125.187C18.6564 124.98 18.0731 125.226 17.8653 125.738C17.6576 126.249 17.9039 126.833 18.4156 127.04L26.7544 130.427ZM112.047 53.0007C111.376 53.7422 111.376 53.742 111.376 53.7419C111.376 53.7419 111.376 53.7417 111.375 53.7417C111.375 53.7415 111.375 53.7414 111.375 53.7412C111.375 53.7409 111.374 53.7407 111.374 53.7405C111.374 53.7401 111.373 53.7398 111.373 53.7396C111.373 53.7394 111.373 53.7397 111.374 53.7405C111.376 53.7423 111.38 53.7462 111.387 53.7524C111.4 53.7647 111.421 53.7857 111.45 53.8149C111.508 53.8735 111.594 53.9645 111.697 54.0844C111.904 54.3259 112.171 54.6754 112.409 55.1051L114.158 54.1348C113.839 53.5597 113.487 53.0996 113.215 52.7826C113.079 52.6233 112.96 52.4979 112.873 52.4099C112.83 52.3658 112.794 52.331 112.768 52.3058C112.755 52.2932 112.744 52.2829 112.735 52.2752C112.731 52.2713 112.728 52.268 112.725 52.2654C112.723 52.264 112.722 52.2629 112.721 52.2618C112.72 52.2613 112.72 52.2609 112.719 52.2604C112.719 52.2602 112.719 52.26 112.719 52.2598C112.719 52.2597 112.718 52.2596 112.718 52.2595C112.718 52.2594 112.718 52.2592 112.047 53.0007ZM112.84 58.2734C112.592 59.0793 112.007 60.0263 110.777 61.0409L112.049 62.584C113.515 61.3754 114.365 60.1161 114.751 58.8615L112.84 58.2734ZM107.48 63.0755C106.447 63.5747 105.235 64.0715 103.817 64.5578L104.466 66.4496C105.947 65.9416 107.235 65.4153 108.35 64.8764L107.48 63.0755ZM99.9794 65.7075C98.7766 66.0234 97.4701 66.331 96.0519 66.6278L96.4615 68.5854C97.9097 68.2823 99.2492 67.9672 100.488 67.6418L99.9794 65.7075ZM92.0639 67.381C90.799 67.5965 89.462 67.8042 88.0494 68.0029L88.3279 69.9834C89.7585 69.7822 91.1146 69.5716 92.3999 69.3526L92.0639 67.381ZM84.0155 68.5205C82.7178 68.6721 81.365 68.8167 79.9549 68.9538L80.1483 70.9444C81.5707 70.8062 82.9364 70.6602 84.2476 70.507L84.0155 68.5205ZM75.8528 69.3173C74.5512 69.422 73.2061 69.5208 71.8162 69.6132L71.9488 71.6088C73.3477 71.5158 74.702 71.4164 76.0133 71.3108L75.8528 69.3173ZM67.7584 69.8573C66.4183 69.9299 65.0402 69.9969 63.623 70.058L63.7092 72.0561C65.1335 71.9947 66.5189 71.9274 67.8665 71.8544L67.7584 69.8573ZM59.595 70.212C58.2589 70.2569 56.8907 70.2968 55.4896 70.3315L55.5392 72.3309C56.946 72.296 58.32 72.256 59.6621 72.2109L59.595 70.212ZM51.4132 70.4164C50.0787 70.439 48.7163 70.4572 47.3255 70.4707L47.345 72.4706C48.7405 72.457 50.1077 72.4388 51.447 72.4161L51.4132 70.4164ZM43.2356 70.497C42.5406 70.4992 41.839 70.5003 41.1305 70.5003L41.1305 72.5003C41.841 72.5003 42.5448 72.4992 43.2419 72.497L43.2356 70.497ZM41.1305 70.5003C40.4102 70.5003 39.7099 70.5201 39.0294 70.5591L39.1438 72.5558C39.7847 72.5191 40.4468 72.5003 41.1305 72.5003L41.1305 70.5003ZM34.9402 71.0653C33.495 71.351 32.1589 71.7418 30.926 72.2294L31.6616 74.0892C32.7743 73.6491 33.9934 73.2912 35.3282 73.0273L34.9402 71.0653ZM27.1976 74.1988C25.9987 75.0209 24.9442 75.9619 24.0222 77.003L25.5195 78.329C26.3352 77.4078 27.2672 76.5761 28.3286 75.8483L27.1976 74.1988ZM21.61 80.4657C20.9496 81.6814 20.4096 82.9723 19.9749 84.3189L21.8781 84.9333C22.2791 83.6916 22.7722 82.5161 23.3674 81.4205L21.61 80.4657ZM18.9986 88.3426C18.7695 89.6766 18.6181 91.0459 18.5329 92.4361L20.5291 92.5585C20.6104 91.2321 20.7544 89.9356 20.9697 88.6811L18.9986 88.3426ZM18.4616 96.5202C18.4927 97.8712 18.5743 99.2316 18.6972 100.589L20.689 100.409C20.5698 99.0913 20.4911 97.776 20.4611 96.4741L18.4616 96.5202ZM19.1778 104.623C19.3749 105.97 19.6048 107.305 19.8587 108.615L21.8222 108.234C21.5736 106.952 21.3489 105.648 21.1567 104.333L19.1778 104.623ZM20.7111 112.578C21.029 113.928 21.3646 115.236 21.7066 116.488L23.6359 115.961C23.2995 114.73 22.9699 113.444 22.6578 112.12L20.7111 112.578ZM22.8364 120.371C23.2695 121.775 23.6939 123.064 24.0875 124.211L25.9791 123.561C25.5917 122.433 25.1738 121.163 24.7476 119.781L22.8364 120.371ZM25.4702 128.028C25.6971 128.62 25.881 129.084 26.0085 129.4C26.0723 129.558 26.1221 129.679 26.1561 129.761C26.1731 129.802 26.1862 129.834 26.1952 129.855C26.1996 129.866 26.2031 129.874 26.2055 129.88C26.2067 129.883 26.2076 129.885 26.2083 129.886C26.2086 129.887 26.2088 129.888 26.209 129.888C26.2091 129.888 26.2092 129.889 26.2093 129.889C26.2093 129.889 26.2093 129.889 26.2094 129.889C26.2094 129.889 26.2094 129.889 26.2094 129.889C26.2094 129.889 26.2094 129.889 27.1306 129.5C28.0518 129.111 28.0518 129.111 28.0518 129.111C28.0518 129.111 28.0518 129.111 28.0518 129.111C28.0518 129.111 28.0518 129.111 28.0518 129.111C28.0518 129.111 28.0518 129.111 28.0518 129.111C28.0517 129.111 28.0516 129.11 28.0514 129.11C28.0509 129.109 28.0503 129.107 28.0493 129.105C28.0474 129.1 28.0445 129.093 28.0405 129.084C28.0325 129.065 28.0204 129.036 28.0044 128.997C27.9724 128.92 27.9248 128.803 27.8631 128.651C27.7397 128.345 27.5603 127.893 27.338 127.313L25.4702 128.028Z" fill="black"/>
</svg>
