<svg width="564" height="244" viewBox="0 0 564 244" fill="none" xmlns="http://www.w3.org/2000/svg">
<path d="M16.6914 3.33295C13.7931 3.33295 9.37987 3.32197 5.37223 2.82131C5.00301 2.77722 4.32882 3.22871 3.98158 3.60193C2.97708 4.68155 3.13654 7.09987 3.13654 8.41557C3.13654 12.7685 4.24982 17.2463 4.74211 21.585C5.07204 24.4928 6.10436 27.1999 6.55893 30.077C7.02083 33.0005 6.9392 35.9343 6.9392 38.8869C6.9392 45.3986 7.20302 51.3995 8.249 57.8236C9.61254 66.198 8.05423 75.2376 8.48138 83.731C8.56658 85.425 9.03001 87.6693 8.37575 89.3393L8.34401 89.4203L8.34378 89.4209C7.95948 90.4011 7.31939 92.0336 7.31939 93.0177C6.81128 96.8404 5.74149 100.537 6.26309 104.461C6.99293 109.952 6.93912 115.986 6.93912 121.536C6.93912 126.468 7.13654 131.437 6.64336 136.34C6.0816 141.925 4.88289 147.682 4.67865 153.279C4.55515 156.664 4.30517 160.016 4.27726 163.406C4.24911 166.825 3.38942 170.089 3.13646 173.487C2.64415 180.101 1.87677 186.915 2.01679 193.537C2.14557 199.626 2.99745 205.227 4.066 211.134C4.42226 213.103 4.43755 215.119 4.74203 217.083C5.01185 218.823 5.76674 220.369 5.79832 222.169C5.85148 225.196 6.55885 228.123 6.55885 231.16C6.55885 232.411 6.7563 233.851 6.3476 235.043C6.23329 235.376 4.87549 237.37 5.1223 237.609C5.83476 238.298 9.49757 237.974 10.4671 238.108C11.7609 238.288 12.8364 238.517 14.1642 238.517H25.8679C30.2593 238.517 34.5854 238.008 38.9237 237.291C45.8558 236.145 53.1837 236.882 60.1974 236.882H82.2318C100.002 236.882 117.875 237.67 135.596 236.859C137.708 236.763 139.771 236.134 141.891 235.974C145.735 235.683 149.585 235.591 153.426 235.247C159.354 234.716 165.292 234.839 171.235 234.839C174.481 234.839 177.822 234.553 181.016 235.293C184.481 236.095 187.08 236.284 190.607 236.156C197.753 235.896 204.923 236.065 212.071 236.065C221.511 236.065 231.147 235.922 240.57 236.678C255.046 237.839 269.896 236.882 284.406 236.882C293.566 236.882 302.718 236.786 311.87 237.2C318.781 237.513 325.716 237.86 332.637 237.677C338.069 237.533 343.518 236.967 348.882 236.065C351.939 235.55 354.997 234.839 358.093 234.839C362.762 234.839 367.32 235.312 371.952 236.065C382.153 237.722 392.673 238.261 402.986 238.494C428.669 239.075 454.381 238.926 480.074 238.926C490.953 238.926 501.809 239.334 512.692 239.334C522.906 239.334 533.336 243.072 543.578 241.696C546.876 241.253 550.617 241.106 553.698 239.743C554.979 239.176 556.438 239.025 557.479 238.017C559.325 236.232 560.226 236.103 560.226 233.204C560.226 230.746 559.4 228.226 558.916 225.847C558.427 223.444 558.434 220.853 558.029 218.4C557.298 213.984 557.396 206.676 560.226 202.96C561.025 201.617 561.369 200.467 561.629 198.734C562 196.26 562 193.608 562 191.097V191.061C562 181.698 561.089 172.39 561.089 163.039V148.075C561.089 143.56 561.747 139.113 561.696 134.599C561.666 131.963 560.934 129.419 560.802 126.8C560.505 120.901 560.161 114.957 559.199 109.134C558.077 102.348 555.621 95.9108 555.621 88.9645C555.621 87.403 555.401 85.6284 555.756 84.1036C556.359 81.5091 557.031 79.2347 557.292 76.5402C557.948 69.7719 556.229 62.9475 556.229 56.1353C556.229 54.3264 556.753 52.9156 557.072 51.2019C557.783 47.3814 557.526 43.3159 558.355 39.5756C559.02 36.5751 559.874 33.8875 559.874 30.7788C559.874 28.2267 559.57 25.7275 559.57 23.1791C559.57 16.7316 559.874 10.383 559.874 3.93506C559.874 2.42717 555.171 3.60859 554.254 3.60859C549.635 3.60859 544.911 3.57333 540.349 2.81053C535.568 2.01122 530.32 2.62915 525.515 2.62915C520.353 2.62915 515.239 3.15981 510.057 2.88308C494.707 2.06331 479.322 2.30267 463.953 2.30267C441.334 2.30267 418.739 3.60859 396.147 3.60859C386.707 3.60859 378.16 1.62253 368.697 2.93501C360.306 4.09864 351.525 3.33295 343.07 3.33295C331.168 3.33295 319.27 3.45413 307.499 5.63535C302.57 6.54874 297.148 5.86176 292.213 5.37953C285.784 4.75136 279.342 4.96008 272.907 4.46994C261.762 3.62108 250.613 4.4395 239.478 3.7309C216.378 2.26081 193.092 1.52165 169.923 2.33809C165.851 2.48162 161.896 3.33295 157.811 3.33295H147.708C137.095 3.33295 126.489 2.30967 115.866 2.30967H39.1711C36.7469 2.30967 34.359 2.82131 31.9776 2.82131C28.8335 2.82131 25.4452 2.412 22.351 3.07713C20.4965 3.47577 18.5813 3.33295 16.6914 3.33295Z" fill="white"/>
<path d="M82.2318 236.882C100.002 236.882 117.875 237.67 135.596 236.859C137.708 236.763 139.771 236.134 141.891 235.974C145.735 235.683 149.585 235.591 153.426 235.247C159.354 234.716 165.292 234.839 171.235 234.839C174.481 234.839 177.822 234.553 181.016 235.293C184.481 236.095 187.08 236.284 190.607 236.156C197.753 235.896 204.923 236.065 212.071 236.065C221.511 236.065 231.147 235.922 240.57 236.678C255.046 237.839 269.896 236.882 284.406 236.882C293.566 236.882 302.718 236.786 311.87 237.2C318.781 237.513 325.716 237.86 332.637 237.677C338.069 237.533 343.518 236.967 348.882 236.065C351.939 235.55 354.997 234.839 358.093 234.839C362.762 234.839 367.32 235.312 371.952 236.065C382.153 237.722 392.673 238.261 402.986 238.494C428.669 239.075 454.381 238.926 480.074 238.926C490.953 238.926 501.809 239.334 512.692 239.334C522.906 239.334 533.336 243.072 543.578 241.696C546.876 241.253 550.617 241.106 553.698 239.743C554.979 239.176 556.438 239.025 557.479 238.017C559.325 236.232 560.226 236.103 560.226 233.204C560.226 230.746 559.4 228.226 558.916 225.847C558.427 223.444 558.434 220.853 558.029 218.4C557.298 213.984 557.396 206.676 560.226 202.96C561.025 201.617 561.369 200.467 561.629 198.734C562 196.26 562 193.608 562 191.097V191.062C562 181.698 561.089 172.39 561.089 163.039V148.075C561.089 143.56 561.748 139.113 561.696 134.599C561.666 131.963 560.934 129.419 560.802 126.8C560.505 120.901 560.161 114.957 559.199 109.134C558.077 102.348 555.621 95.9108 555.621 88.9645C555.621 87.403 555.401 85.6284 555.756 84.1036C556.36 81.5091 557.031 79.2347 557.292 76.5402C557.948 69.7719 556.229 62.9475 556.229 56.1353C556.229 54.3264 556.753 52.9156 557.072 51.2019C557.783 47.3814 557.526 43.3159 558.355 39.5756C559.02 36.5751 559.874 33.8875 559.874 30.7788C559.874 28.2267 559.57 25.7275 559.57 23.1791C559.57 16.7316 559.874 10.383 559.874 3.93506C559.874 2.42717 555.171 3.60859 554.254 3.60859C549.635 3.60859 544.911 3.57333 540.349 2.81053C535.568 2.01122 530.32 2.62915 525.515 2.62915C520.353 2.62915 515.239 3.15981 510.057 2.88308C494.707 2.06331 479.322 2.30267 463.953 2.30267C441.334 2.30267 418.739 3.60859 396.147 3.60859C386.707 3.60859 378.16 1.62253 368.697 2.93501C360.306 4.09864 351.525 3.33295 343.07 3.33295C331.168 3.33295 319.27 3.45413 307.499 5.63535C302.57 6.54874 297.148 5.86176 292.213 5.37953C285.784 4.75136 279.342 4.96008 272.907 4.46994C261.762 3.62108 250.613 4.4395 239.478 3.7309C216.378 2.26081 193.092 1.52165 169.923 2.33809C165.851 2.48162 161.896 3.33295 157.811 3.33295H147.708C137.095 3.33295 126.489 2.30967 115.866 2.30967H39.1711C36.7469 2.30967 34.359 2.82131 31.9776 2.82131C28.8335 2.82131 25.4452 2.412 22.351 3.07713C20.4965 3.47577 18.5813 3.33295 16.6914 3.33295C13.7931 3.33295 9.37987 3.32197 5.37223 2.82131C5.00301 2.77722 4.32882 3.22871 3.98158 3.60193C2.97708 4.68155 3.13654 7.09987 3.13654 8.41557C3.13654 12.7685 4.24982 17.2463 4.74211 21.585C5.07204 24.4928 6.10436 27.1999 6.55893 30.077C7.02083 33.0005 6.9392 35.9343 6.9392 38.8869C6.9392 45.3986 7.20302 51.3995 8.249 57.8236C9.61254 66.198 8.05423 75.2376 8.48138 83.731C8.56658 85.425 9.03001 87.6693 8.37575 89.3393L8.34401 89.4203C7.95973 90.4004 7.31939 92.0334 7.31939 93.0177C6.81128 96.8404 5.74149 100.537 6.26309 104.461C6.99293 109.952 6.93912 115.986 6.93912 121.536C6.93912 126.468 7.13654 131.437 6.64336 136.34C6.0816 141.925 4.88289 147.682 4.67865 153.279C4.55515 156.664 4.30517 160.016 4.27726 163.406C4.24911 166.825 3.38942 170.089 3.13646 173.487C2.64415 180.101 1.87677 186.915 2.01679 193.537C2.14557 199.626 2.99745 205.227 4.066 211.134C4.42226 213.103 4.43755 215.119 4.74203 217.083C5.01185 218.823 5.76674 220.369 5.79832 222.169C5.85148 225.196 6.55885 228.123 6.55885 231.16C6.55885 232.411 6.7563 233.851 6.3476 235.043C6.23329 235.376 4.87549 237.37 5.1223 237.609C5.83476 238.298 9.49757 237.974 10.4671 238.108C11.7609 238.288 12.8364 238.517 14.1642 238.517H25.8679C30.2593 238.517 34.5854 238.008 38.9237 237.291C45.8558 236.145 53.1837 236.882 60.1974 236.882H82.612" stroke="black" stroke-width="4" stroke-linecap="round"/>
</svg>
