<svg width="25" height="24" viewBox="0 0 25 24" fill="none" xmlns="http://www.w3.org/2000/svg">
<path d="M6 2.49978C5.37821 2.58301 4 3.99978 4 3.99978C4 3.99978 2.77116 5.87415 2.49341 6.40829C1.6478 8.03446 1.36179 7.99509 1.06793 9.82354C0.935463 10.6478 1.03577 11.5925 1.0459 12.4233C1.05831 13.441 1.19347 14.5271 1.3929 15.5243C1.79733 17.5464 2.75751 19.9283 4.31763 21.3242C4.48934 21.4778 4.752 21.4263 4.96757 21.4784C5.46183 21.5977 5.91224 21.8386 6.42167 21.897C7.20107 21.9863 8.00253 22.1698 8.78458 22.2109C10.9385 22.3243 13.0863 22.3156 15.2454 22.3156C16.3766 22.3156 17.511 22.1677 18.6163 21.919C18.9705 21.8393 19.9684 21.6403 20.1806 21.2691C20.7439 20.2833 21.43 19.3936 21.866 18.3278C22.4272 16.9561 22.9801 15.5774 23.1549 14.0922C23.2472 13.3073 23.2963 12.5414 23.2044 11.7513C23.1073 10.9161 23.2513 10.058 23.1328 9.22868C22.9046 7.6309 22.9084 5.88852 22.5049 4.3321C22.4248 4.02313 22.3366 3.72978 22.2846 3.41227C22.2129 2.97521 21.9729 2.73065 21.8219 2.33271C21.6959 2.00048 21.3481 1.77892 21 1.59464C20.6442 1.40625 18.8719 1.00364 18.5 0.999771C17.4624 0.988963 16.0375 1.09894 15 1.09894C12.6805 1.09894 12.0297 1.0576 9.71543 1.09893C9.07292 1.1104 8.543 1.35545 7.9639 1.59464C7.00862 1.98921 6 2.49978 6 2.49978Z" fill="#D9D9D9" stroke="#D9D9D9" stroke-width="2" stroke-linecap="round"/>
<path d="M11.1738 14.1953C11.0137 14.1953 10.873 14.1348 10.752 14.0137C10.6309 13.8887 10.5703 13.748 10.5703 13.5918C10.5703 13.3223 10.8203 12.9902 11.3203 12.5957L12.7207 11.541C13.2246 11.1074 13.4766 10.7109 13.4766 10.3516C13.4766 9.89844 13.2637 9.48047 12.8379 9.09766C12.4277 8.72656 11.9922 8.54102 11.5312 8.54102C11.2852 8.54102 10.9727 8.66797 10.5938 8.92188C10.2148 9.17188 9.98047 9.29688 9.89062 9.29688C9.73047 9.29688 9.5918 9.23242 9.47461 9.10352C9.36133 8.97461 9.30469 8.83008 9.30469 8.66992C9.30469 8.36133 9.60352 8.05469 10.2012 7.75C10.7363 7.47656 11.1797 7.33984 11.5312 7.33984C12.3164 7.33984 13.0293 7.64648 13.6699 8.25977C14.3105 8.87305 14.6309 9.57031 14.6309 10.3516C14.6309 10.9219 14.4473 11.4277 14.0801 11.8691C13.8613 12.1348 13.4551 12.4785 12.8613 12.9004C12.2637 13.334 11.8477 13.6855 11.6133 13.9551C11.4766 14.1152 11.3301 14.1953 11.1738 14.1953ZM10.8516 16.4219C10.6797 16.4219 10.5234 16.3633 10.3828 16.2461C10.2461 16.1328 10.1777 15.9941 10.1777 15.8301C10.1777 15.5879 10.2422 15.3691 10.3711 15.1738C10.5156 14.9551 10.7012 14.8457 10.9277 14.8457C11.3027 14.8457 11.4902 15.0762 11.4902 15.5371C11.4902 15.752 11.4395 15.9453 11.3379 16.1172C11.2129 16.3203 11.0508 16.4219 10.8516 16.4219Z" fill="black"/>
</svg>
