<svg width="63" height="61" viewBox="0 0 63 61" fill="none" xmlns="http://www.w3.org/2000/svg">
<path d="M60.2034 53.4179C60.2034 54.7259 60.4104 56.2019 58.9613 57.029C56.7251 58.7019 49.4064 59.1829 47.7371 59.4671C46.1882 59.7307 44.2522 59.5975 42.7115 59.4096C37.0059 58.7138 31.1857 59.8232 25.4726 59.3521C23.5972 59.1974 21.6819 59.3662 19.8259 58.984C18.4278 58.6962 16.9179 58.478 15.4903 58.478C12.6456 58.478 10.0731 57.9699 7.41715 56.937C5.82025 56.316 5.38418 55.5529 4.52243 54.0448L4.51908 54.0389C3.44008 52.1507 2.71905 49.7753 2.65604 47.5068C2.54596 43.5439 1.4635 39.5551 1.41401 35.5465C1.36518 31.5913 1.62101 27.6679 1.62101 23.7127C1.62101 20.437 1 17.2354 1 13.972C1 11.6928 1.81957 9.84298 2.61004 7.83087C3.6765 5.11624 5.55987 3.42499 8.34867 2.80525C9.92037 2.45599 11.716 2.17274 13.3283 2.17274C15.2292 2.17274 17.0919 1.38631 18.9634 1.34472C25.3516 1.20276 31.7615 1.13772 38.1689 1.13772C41.8043 1.13772 45.6143 0.820325 49.2321 1.14922C50.4128 1.25655 51.7793 1.36115 52.9122 1.71273C53.7019 1.95781 55.1356 1.87678 55.7643 2.37974C56.3157 2.82093 57.6114 2.74866 57.9263 3.29977C57.9539 3.34802 59.1229 4.03311 59.1683 4.03578C59.6778 4.06575 60.6599 5.68525 60.8129 6.22083C61.0389 7.01192 60.639 7.92449 60.6174 8.70489C60.5917 9.62719 60.6174 10.5537 60.6174 11.4765C60.6174 13.6714 60.4104 15.8525 60.4104 18.0661C60.4104 21.7078 61.0314 25.4986 61.0314 29.1869C61.0314 30.6549 61.1331 32.1464 60.8704 33.5915C60.6816 34.6298 60.9564 35.7061 60.7209 36.7425C60.3146 38.5302 60.2034 40.5004 60.2034 42.3317C60.2034 44.9884 60.4104 47.6223 60.4104 50.3013C60.4104 51.3442 60.2034 52.4375 60.2034 53.4179Z" fill="white"/>
<path fill-rule="evenodd" clip-rule="evenodd" d="M41.6777 0.0711053C44.2063 0.000357836 46.8326 -0.0731253 49.3226 0.153247C49.4076 0.160971 49.4945 0.168735 49.5832 0.176651C50.6826 0.274856 52.0454 0.396585 53.2086 0.757589C53.3228 0.793039 53.4921 0.825296 53.7374 0.858666C53.8543 0.874569 53.9765 0.88926 54.1099 0.905295L54.1152 0.905934C54.2478 0.921872 54.3909 0.939094 54.5341 0.958675C54.8164 0.997273 55.1346 1.04946 55.4383 1.13596C55.7357 1.22063 56.0855 1.35602 56.389 1.5988C56.3877 1.59776 56.3878 1.59784 56.3897 1.59893C56.3991 1.60434 56.4521 1.63476 56.5894 1.67776C56.7141 1.71684 56.8429 1.74779 57.0063 1.78709C57.0578 1.79947 57.1128 1.81268 57.1721 1.82723C57.3881 1.88017 57.6753 1.95414 57.9398 2.0719C58.1449 2.16319 58.4146 2.31418 58.6328 2.57241C58.6395 2.57663 58.6466 2.58104 58.654 2.58564C58.7588 2.65086 58.9014 2.73665 59.0484 2.8233C59.1951 2.90977 59.34 2.99345 59.4485 3.05438C59.4681 3.06534 59.4857 3.07515 59.5013 3.08381C59.6759 3.13272 59.8168 3.20967 59.915 3.27202C60.0718 3.37154 60.2089 3.49161 60.3222 3.60373C60.5493 3.82854 60.7644 4.10572 60.9472 4.37049C61.294 4.87279 61.6525 5.51921 61.7744 5.94604C61.9541 6.57492 61.871 7.19466 61.793 7.63944C61.764 7.80509 61.7366 7.94556 61.7125 8.0694C61.6598 8.34025 61.6226 8.53153 61.617 8.73258C61.6004 9.32995 61.6058 9.91409 61.6115 10.5185C61.6144 10.8308 61.6174 11.1486 61.6174 11.4764C61.6174 12.5952 61.5649 13.7068 61.5136 14.7934L61.5128 14.8113C61.4608 15.9114 61.4104 16.9867 61.4104 18.066C61.4104 19.838 61.5615 21.654 61.7174 23.526L61.7177 23.5293C61.8723 25.385 62.0314 27.2952 62.0314 29.1868C62.0314 29.4733 62.036 29.7718 62.0408 30.0788C62.059 31.244 62.0791 32.5336 61.8542 33.7703C61.7836 34.1586 61.7957 34.5661 61.8119 35.11L61.8127 35.138C61.8281 35.6558 61.8458 36.305 61.696 36.9641C61.3137 38.6463 61.2034 40.5314 61.2034 42.3316C61.2034 43.6372 61.2542 44.9403 61.3061 46.2691L61.3061 46.2702C61.3578 47.5923 61.4104 48.9395 61.4104 50.3013C61.4104 50.8796 61.3531 51.4619 61.3021 51.9804L61.3021 51.9809C61.2491 52.5192 61.2034 52.9861 61.2034 53.4178C61.2034 53.5252 61.2056 53.6454 61.2081 53.775C61.218 54.3029 61.2309 54.9874 61.1057 55.6031C60.9329 56.4524 60.4918 57.286 59.5104 57.8664C58.7983 58.3819 57.7942 58.7541 56.7662 59.0393C55.6873 59.3386 54.4687 59.5714 53.2921 59.7566C52.1125 59.9423 50.955 60.0832 49.9962 60.1947C49.8089 60.2165 49.631 60.237 49.4629 60.2563C48.7496 60.3385 48.2148 60.4001 47.9049 60.4528C46.2047 60.7422 44.1471 60.592 42.5904 60.4021C39.8312 60.0656 37.0277 60.1637 34.1404 60.2955C33.9451 60.3044 33.7493 60.3134 33.5531 60.3225C30.8758 60.4466 28.1242 60.5741 25.3904 60.3486C24.7309 60.2942 24.0778 60.2821 23.3883 60.2693C23.1363 60.2646 22.8795 60.2599 22.6157 60.2529C21.6568 60.2277 20.6419 60.1729 19.6243 59.9634C18.2609 59.6827 16.8241 59.478 15.4903 59.478C12.5153 59.478 9.82015 58.9444 7.0547 57.8689C6.14195 57.514 5.49467 57.0893 4.95495 56.497C4.46346 55.9576 4.09077 55.3052 3.68929 54.6023L3.65419 54.5409L3.65413 54.5408L3.65084 54.535C2.49633 52.5146 1.72434 49.9795 1.65642 47.5345C1.60489 45.6793 1.33225 43.81 1.04869 41.8657L1.02276 41.6879C0.733264 39.7016 0.439769 37.6391 0.414086 35.5588C0.389385 33.558 0.441789 31.5694 0.499632 29.6002C0.504645 29.4295 0.509697 29.259 0.514746 29.0887C0.568127 27.2874 0.621014 25.5029 0.621014 23.7127C0.621014 22.1305 0.471068 20.5586 0.31508 18.9332L0.3125 18.9063C0.158804 17.3048 0 15.6501 0 13.9719C0 11.6884 0.755371 9.78971 1.46976 7.99399C1.54026 7.8168 1.61035 7.6406 1.67929 7.46514C2.85908 4.46204 4.99678 2.52565 8.13174 1.82899C9.73818 1.472 11.6134 1.17266 13.3283 1.17266C14.1563 1.17266 14.9964 1.0012 15.9464 0.796655C15.9855 0.788235 16.0248 0.779751 16.0643 0.771222C16.9484 0.580478 17.9368 0.367211 18.9412 0.344891C25.3374 0.202753 31.7548 0.13764 38.1689 0.13764C39.2998 0.13764 40.4777 0.104681 41.6777 0.0711053ZM41.8956 2.06744C40.6646 2.10238 39.4226 2.13764 38.1689 2.13764C31.7683 2.13764 25.3658 2.20262 18.9856 2.3444C18.1758 2.36239 17.3532 2.53954 16.4104 2.74258L16.3674 2.75184C15.4429 2.95091 14.4011 3.17266 13.3283 3.17266C11.8187 3.17266 10.1026 3.43982 8.5656 3.78136C6.12297 4.32417 4.49392 5.77028 3.54079 8.19645C3.47457 8.36501 3.40892 8.53082 3.34418 8.69431C2.61373 10.5392 2 12.0893 2 13.9719C2 15.5478 2.14992 17.1164 2.30593 18.7421L2.30765 18.76C2.46164 20.3646 2.62101 22.0253 2.62101 23.7127C2.62101 25.5341 2.56723 27.3481 2.51398 29.1443C2.50889 29.316 2.5038 29.4875 2.49877 29.6589C2.4409 31.629 2.38981 33.5797 2.41393 35.5341C2.43774 37.4624 2.71022 39.3985 3.00185 41.3995C3.01258 41.4731 3.02334 41.5468 3.03411 41.6207C3.31288 43.531 3.60079 45.504 3.65565 47.4789C3.71376 49.5709 4.38383 51.7866 5.38732 53.5427L5.38738 53.5428L5.39068 53.5486C5.3907 53.5486 5.39072 53.5487 5.39074 53.5487C5.83745 54.3304 6.10638 54.7912 6.43327 55.1499C6.72625 55.4715 7.09544 55.7389 7.77959 56.0049L7.41715 56.9369L7.77959 56.0049C10.326 56.9952 12.7759 57.478 15.4903 57.478C17.0117 57.478 18.5947 57.7095 20.0276 58.0045C20.866 58.1771 21.7367 58.2291 22.6683 58.2536C22.8969 58.2596 23.1319 58.264 23.3713 58.2684C24.0797 58.2815 24.8262 58.2953 25.5548 58.3554C28.1547 58.5698 30.7835 58.4483 33.4891 58.3233C33.6755 58.3147 33.8622 58.3061 34.0493 58.2975C36.9268 58.1663 39.8862 58.0575 42.8325 58.4168C44.3572 58.6028 46.1718 58.719 47.5693 58.4812C47.938 58.4184 48.5483 58.3482 49.2656 58.2658C49.4271 58.2472 49.5942 58.228 49.7651 58.2081C50.7179 58.0973 51.8428 57.9601 52.9811 57.7809C54.1224 57.6012 55.2571 57.3824 56.2316 57.1121C57.2326 56.8344 57.9589 56.53 58.3623 56.2282L58.4119 56.1911L58.4656 56.1604C58.8959 55.9149 59.063 55.6116 59.1458 55.2043C59.2229 54.8254 59.2167 54.4389 59.2088 53.947C59.2062 53.7835 59.2034 53.6083 59.2034 53.4178C59.2034 52.8854 59.2577 52.3329 59.3072 51.8308L59.3117 51.7851C59.3642 51.2513 59.4104 50.7657 59.4104 50.3013C59.4104 48.9845 59.3595 47.6756 59.3076 46.3471L59.3069 46.3292C59.2555 45.0129 59.2034 43.6767 59.2034 42.3316C59.2034 40.4693 59.3155 38.4141 59.7457 36.5208C59.8315 36.1435 59.8296 35.7364 59.8136 35.1973C59.8126 35.1652 59.8116 35.1326 59.8106 35.0993C59.7957 34.6158 59.777 34.0145 59.8865 33.4125C60.0728 32.3877 60.0578 31.358 60.0413 30.223C60.0364 29.8876 60.0314 29.5431 60.0314 29.1868C60.0314 27.3913 59.8802 25.5631 59.7243 23.692L59.7211 23.6535C59.5675 21.8097 59.4104 19.9228 59.4104 18.066C59.4104 16.9333 59.4633 15.8128 59.5148 14.7216L59.515 14.717C59.5669 13.6167 59.6174 12.5463 59.6174 11.4764C59.6174 11.1886 59.6146 10.891 59.6119 10.5879C59.6061 9.96041 59.6002 9.30989 59.6178 8.67704C59.6283 8.29698 59.713 7.86412 59.7765 7.5396C59.7944 7.44792 59.8106 7.3649 59.823 7.29414C59.8939 6.88979 59.8977 6.65771 59.8514 6.49551C59.8514 6.49557 59.8484 6.48561 59.8403 6.46415C59.8321 6.4428 59.8207 6.41492 59.8054 6.38049C59.7746 6.31118 59.7328 6.22581 59.6809 6.12865C59.5767 5.9336 59.4434 5.7125 59.3013 5.50676C59.1558 5.29597 59.0203 5.12918 58.9152 5.02517C58.9029 5.01299 58.8922 5.0028 58.883 4.99438C58.8826 4.99426 58.8822 4.99415 58.8818 4.99404L58.8815 4.99395C58.8447 4.98304 58.8154 4.97212 58.799 4.96571C58.7654 4.9527 58.738 4.94013 58.7234 4.9333C58.692 4.91857 58.6615 4.90288 58.6384 4.89078C58.5896 4.86519 58.5306 4.83267 58.4694 4.79834C58.3451 4.72856 58.1875 4.63745 58.0329 4.54628C57.8785 4.4553 57.7209 4.3606 57.5973 4.28371C57.5367 4.24603 57.4768 4.20792 57.4273 4.17459C57.4039 4.15888 57.3717 4.13671 57.3391 4.11196C57.3238 4.10028 57.2959 4.07863 57.2643 4.05034L57.2639 4.04997C57.2579 4.04485 57.194 3.98994 57.1258 3.89873C57.0416 3.86136 56.9115 3.82256 56.6959 3.76969C56.66 3.76089 56.6206 3.75147 56.5787 3.74143C56.4052 3.69988 56.1879 3.64784 55.9916 3.58633C55.7486 3.51024 55.423 3.38733 55.1396 3.16054C55.1287 3.15183 55.0635 3.10874 54.8906 3.05949C54.724 3.01206 54.5166 2.97489 54.2631 2.94024C54.1385 2.9232 54.0112 2.90782 53.8765 2.89164L53.8643 2.89017C53.7361 2.87477 53.6004 2.85845 53.4678 2.84041C53.2025 2.80433 52.8964 2.75481 52.6158 2.66772C51.6655 2.3728 50.5073 2.2683 49.3542 2.16427C49.2833 2.15787 49.2124 2.15147 49.1416 2.14503C46.7671 1.92917 44.3534 1.99768 41.8956 2.06744ZM57.1648 3.91857C57.1647 3.91861 57.163 3.91761 57.1599 3.91549C57.1634 3.91748 57.1649 3.91854 57.1648 3.91857Z" fill="black"/>
</svg>
