<svg width="105" height="44" viewBox="0 0 105 44" fill="none" xmlns="http://www.w3.org/2000/svg">
<path d="M26 1.0971C21.8212 1.1219 22.0398 0.365707 18 0.365707C17.3878 0.365707 14.1328 1.07012 12.149 1.5125C11.1183 1.74236 10.0657 1.84702 9.01256 1.92557C6.00837 2.14964 1.76125 3.01931 0.858771 5.2823C-0.549966 8.81474 0.19881 13.5428 0.19881 17.269C0.19881 23.0719 -0.445305 29.2466 1.02376 34.9037C2.30613 39.8419 10.0652 41.5584 14 42C20.9974 42.7853 27.809 42.1432 34.723 43.1522C41.3858 44.1246 48.1247 43.9649 54.8519 43.9649C62.3208 43.9649 69.6549 44.3178 76.9606 42.7865C80.4957 42.0456 83.9642 40.8382 87.52 40.2266C91.546 39.5342 96.4724 38.5135 99.8118 36.0821C103.55 33.36 101.96 28.6802 103.854 24.9487C105.508 21.6909 104.885 17.9544 104.885 14.3434C104.885 12.3879 104.584 10.515 104.514 8.57357C104.479 7.6082 103.26 4.53407 102.493 3.73824C101.529 2.73899 99.9866 1.17837 98.5743 1.17837C94.538 1.17837 90.5111 0.702136 86.4888 0.365707C79.3669 -0.229974 72.099 0.0812764 64.9575 0.0812764C57.7196 0.0812764 50.5106 0.0554531 43.3438 1.0971C41.7191 1.33323 36.3271 1.0971 34.7231 1.8626C30.5547 2.21124 30.1788 1.0723 26 1.0971Z" fill="black"/>
</svg>
